{"glyphs":{"0":{"ha":713,"x_min":41,"x_max":777,"o":"m 228 -89 q 86 -13 133 -89 q 41 185 41 62 q 42 255 41 189 q 92 483 43 321 q 310 900 172 730 q 591 1069 448 1069 q 732 989 686 1069 q 777 788 777 913 q 776 713 777 783 q 725 482 775 644 q 508 74 646 237 q 228 -89 370 -89 m 242 -43 q 403 106 317 -43 q 560 482 489 256 q 641 867 631 709 q 642 902 642 886 q 576 1024 642 1024 q 415 867 503 1024 q 257 483 328 710 q 177 106 186 257 q 176 76 176 90 q 242 -43 176 -43 z "},"1":{"ha":407,"x_min":73,"x_max":585,"o":"m 509 1069 l 518 1069 q 574 1037 557 1066 q 585 998 585 1020 q 577 957 585 979 l 205 -3 q 198 -38 198 -22 q 199 -47 198 -43 q 210 -77 201 -66 q 227 -90 218 -87 l 172 -90 q 93 -58 113 -90 q 73 2 73 -26 q 83 54 73 26 l 401 873 q 404 897 404 886 q 335 950 404 947 l 509 1069 z "},"2":{"ha":728,"x_min":-8,"x_max":796,"o":"m 639 819 q 652 898 652 862 q 642 956 652 930 q 543 1018 618 1013 q 434 956 477 1017 q 391 836 391 894 q 406 751 391 796 q 391 751 398 751 q 284 787 319 751 q 263 842 263 810 q 277 899 263 867 q 388 1018 308 967 q 580 1072 468 1069 q 758 1010 720 1067 q 796 906 796 954 q 779 827 796 869 q 682 681 745 746 q 544 551 620 615 q 337 346 437 463 q 180 45 237 229 l 184 45 l 500 43 q 570 64 542 45 q 604 94 599 82 l 587 14 q 536 -60 576 -31 q 445 -90 496 -90 l 96 -89 q 26 -109 54 -90 q -8 -140 -3 -127 q 34 23 7 -58 q 210 336 100 206 q 429 564 320 466 q 561 695 504 633 q 639 819 617 757 z "},"3":{"ha":736,"x_min":14,"x_max":840,"o":"m 699 819 q 711 889 711 854 q 698 960 711 925 q 608 1019 677 1019 q 583 1017 596 1019 q 485 943 519 1002 q 450 836 450 885 q 466 751 450 796 q 451 751 458 751 q 345 787 379 751 q 323 842 323 810 q 337 899 323 867 q 464 1027 378 983 q 640 1072 549 1072 q 823 999 805 1063 q 840 908 840 935 q 781 752 840 831 q 542 623 701 646 q 686 395 686 557 l 686 385 q 558 64 682 214 q 227 -89 435 -85 q 51 -7 88 -80 q 14 138 14 66 q 20 209 14 172 q 101 414 41 323 q 229 518 160 504 q 261 521 245 521 q 340 500 305 521 q 387 408 387 473 q 315 437 349 437 q 252 412 282 437 q 156 267 189 359 q 123 99 123 174 q 124 68 123 83 q 201 -39 132 -22 l 212 -39 q 376 45 298 -39 q 496 239 459 134 q 532 419 532 344 q 524 496 532 459 q 382 641 501 606 q 418 643 399 643 q 452 642 437 643 q 469 641 460 641 q 699 819 632 641 z "},"4":{"ha":764,"x_min":36,"x_max":861,"o":"m 657 454 l 677 454 q 715 465 699 455 q 733 481 730 475 l 724 439 q 700 410 718 416 q 659 403 682 403 l 654 403 l 637 404 l 479 -3 q 472 -37 472 -22 q 473 -47 472 -42 q 484 -77 475 -66 q 500 -90 492 -87 l 446 -90 q 367 -58 386 -90 q 347 2 347 -26 q 357 54 347 26 l 494 404 l 36 404 l 753 1069 l 785 1069 q 846 1045 831 1069 q 861 998 861 1020 q 853 957 861 979 l 657 454 m 200 453 l 513 453 l 690 909 l 200 453 z "},"5":{"ha":787,"x_min":30,"x_max":955,"o":"m 938 1040 q 887 966 928 996 q 795 935 847 936 l 492 937 q 498 916 498 929 l 498 911 q 489 873 497 894 l 444 747 q 437 718 437 730 q 452 688 437 698 q 510 668 475 673 q 524 666 517 667 q 539 663 530 665 q 564 657 548 661 q 698 427 698 590 q 697 407 698 417 q 564 71 688 227 q 233 -89 439 -86 q 62 -6 95 -79 q 30 131 30 66 q 40 218 30 172 q 130 424 66 336 q 263 519 193 513 l 271 519 q 393 408 391 519 q 321 437 356 437 q 258 412 289 437 q 163 267 196 359 q 130 100 130 175 q 131 68 130 84 q 208 -39 138 -22 l 214 -39 q 412 82 323 -39 q 521 301 505 207 q 536 427 536 396 q 467 601 536 535 q 401 629 435 624 q 361 644 377 633 q 344 668 345 654 q 344 684 344 683 q 366 772 344 713 l 408 888 q 410 897 410 892 q 409 905 410 901 q 401 918 406 915 q 392 922 395 922 q 378 918 386 922 q 342 886 349 899 l 353 937 q 418 1032 367 994 q 535 1071 470 1069 l 851 1069 q 921 1089 892 1071 q 955 1120 949 1107 l 938 1040 z "},"6":{"ha":667,"x_min":9,"x_max":581,"o":"m 581 1069 q 445 941 528 1046 q 280 654 361 835 q 316 665 299 661 q 345 669 334 669 q 534 553 480 666 q 574 371 574 472 q 560 236 574 332 q 456 27 547 140 q 213 -89 366 -86 q 26 83 71 -80 q 9 218 9 145 q 55 490 9 338 q 287 903 136 736 q 581 1069 438 1069 m 220 490 q 178 323 205 446 q 155 107 155 212 q 156 35 155 97 q 229 -43 157 -27 l 230 -43 q 345 57 289 -43 q 430 293 400 158 q 449 448 449 378 q 442 528 449 491 q 343 624 425 624 l 336 624 q 282 598 311 621 q 233 531 252 575 q 220 490 227 511 z "},"7":{"ha":542,"x_min":89,"x_max":701,"o":"m 684 1040 q 667 1000 680 1018 l 661 993 q 421 569 535 829 q 295 -3 307 309 q 294 -28 294 -16 q 298 -63 294 -48 q 316 -90 304 -87 l 261 -90 q 178 -52 201 -90 q 153 34 155 -14 l 153 41 q 265 476 153 222 q 519 935 380 734 l 193 937 q 123 917 152 935 q 89 886 94 899 l 100 937 q 165 1032 113 994 q 281 1071 216 1069 l 597 1069 q 667 1089 639 1071 q 701 1120 696 1107 l 684 1040 z "},"8":{"ha":723,"x_min":25,"x_max":698,"o":"m 521 586 l 524 582 q 608 434 584 509 q 632 302 632 360 q 625 231 632 267 q 481 -16 587 62 q 267 -94 376 -94 q 250 -94 258 -94 q 78 -17 132 -88 q 25 135 25 54 q 43 259 25 190 q 142 438 71 349 q 309 586 214 528 q 261 705 269 666 q 254 772 254 745 q 258 819 254 795 q 340 998 272 928 q 534 1069 408 1067 q 678 1003 659 1064 q 698 903 698 943 q 677 790 698 850 q 521 586 635 667 m 389 489 q 233 342 301 425 q 138 153 165 260 q 130 83 130 114 q 172 -18 130 12 q 245 -42 205 -42 q 318 -25 279 -42 q 452 129 404 13 q 475 260 475 197 q 389 489 475 382 m 441 686 q 558 781 509 728 q 618 918 608 835 l 618 923 q 552 1021 618 1006 q 520 1025 536 1025 q 420 985 469 1025 q 366 853 366 942 q 368 818 366 836 q 441 686 380 738 z "},"9":{"ha":657,"x_min":111,"x_max":682,"o":"m 111 -89 q 248 40 163 -66 q 412 327 332 146 q 375 315 393 319 q 348 311 358 312 q 157 427 212 314 q 118 610 118 509 q 132 745 118 648 q 236 954 146 841 q 479 1069 326 1067 q 665 897 621 1060 q 682 762 682 836 q 637 490 682 642 q 405 78 556 244 q 111 -89 254 -89 m 472 490 q 513 658 487 535 q 537 873 537 769 q 536 945 537 883 q 463 1024 535 1008 l 463 1024 q 348 923 404 1024 q 262 687 292 823 q 243 532 243 603 q 250 452 243 490 q 349 357 267 357 l 355 357 q 410 382 380 359 q 458 450 439 406 q 472 490 466 469 z "},"\u0000":{"ha":0,"x_min":0,"x_max":0,"o":""}," ":{"ha":345,"x_min":0,"x_max":0,"o":""},"!":{"ha":453,"x_min":7,"x_max":532,"o":"m 455 1066 q 517 1041 502 1066 q 532 994 532 1016 q 524 954 532 975 l 195 94 q 137 24 170 35 q 76 13 104 13 q 63 14 69 13 l 52 14 l 391 979 q 397 1014 397 998 q 397 1023 397 1019 q 386 1053 394 1042 q 370 1066 377 1064 l 455 1066 m 108 -84 q 145 -103 136 -84 q 155 -139 155 -123 q 150 -171 155 -154 q 110 -233 138 -208 q 54 -258 83 -258 q 17 -238 26 -258 q 7 -203 7 -219 q 13 -171 7 -188 q 53 -109 25 -134 q 108 -84 80 -84 z "},"\"":{"ha":605,"x_min":74,"x_max":471,"o":"m 184 1230 q 249 1203 231 1230 q 268 1149 268 1177 q 263 1118 268 1135 l 210 993 q 158 923 191 935 q 98 912 126 912 q 85 913 92 912 l 74 913 l 127 1143 q 132 1172 132 1159 q 130 1187 132 1180 q 115 1218 125 1206 q 98 1230 106 1229 l 184 1230 m 398 1230 q 458 1206 445 1230 q 471 1164 471 1182 q 460 1118 471 1143 l 389 993 q 328 923 361 935 q 266 912 294 912 q 253 913 259 912 l 241 913 l 328 1143 q 337 1181 337 1164 l 337 1187 q 328 1218 336 1206 q 313 1230 320 1229 l 398 1230 z "},"#":{"ha":964,"x_min":98,"x_max":853,"o":"m 443 733 q 505 708 490 733 q 520 661 520 683 q 512 621 520 642 l 482 544 l 578 545 l 617 646 q 624 681 624 665 q 623 690 624 686 q 612 720 621 709 q 596 733 604 731 l 654 733 q 715 708 700 733 q 730 661 730 683 q 722 621 730 643 l 693 545 l 758 545 q 831 530 809 545 q 853 493 853 515 q 848 465 853 481 l 817 385 l 817 388 q 811 405 817 395 q 787 426 804 416 q 743 436 770 435 l 651 435 l 623 361 l 699 362 l 703 362 q 777 344 751 362 q 794 311 794 332 q 789 282 794 298 l 758 202 l 758 205 q 752 222 758 212 q 728 243 745 233 q 684 253 711 252 l 581 252 l 541 150 q 534 115 534 131 q 534 106 534 111 q 546 76 537 87 q 562 63 554 64 l 507 63 q 439 91 448 63 q 431 134 431 118 q 448 207 431 165 l 465 252 l 370 252 l 330 150 q 323 115 323 130 q 323 106 323 110 q 335 76 327 87 q 351 63 344 64 l 296 63 q 229 91 237 63 q 221 135 221 119 q 237 207 221 167 l 254 252 l 214 252 q 123 277 149 252 q 98 330 98 302 q 106 370 98 348 l 121 411 l 121 408 q 127 391 121 401 q 151 370 134 380 q 195 360 168 361 l 296 361 l 325 435 l 273 434 q 182 460 208 435 q 157 513 157 485 q 165 553 157 531 l 180 594 l 180 591 q 186 574 180 584 q 210 553 193 562 q 254 543 227 544 l 367 544 l 406 646 q 414 682 414 666 q 413 690 414 686 q 402 720 410 709 q 385 733 393 731 l 443 733 m 440 435 l 412 361 l 507 361 l 536 435 l 440 435 z "},"$":{"ha":705,"x_min":33,"x_max":683,"o":"m 541 1168 q 602 1140 588 1168 q 616 1088 616 1111 q 606 1036 616 1064 l 602 1023 q 683 855 683 952 q 682 840 683 848 q 538 708 675 734 q 585 865 585 795 q 570 937 585 903 l 474 669 q 475 665 475 667 q 543 280 526 490 q 544 248 544 264 q 480 2 544 97 q 291 -92 417 -92 q 260 -91 276 -92 q 205 -80 231 -88 l 200 -93 q 192 -140 192 -119 q 196 -165 192 -154 q 218 -195 205 -193 l 163 -195 q 103 -169 105 -195 q 100 -134 100 -142 q 121 -34 100 -92 q 33 184 33 54 l 33 189 q 89 398 35 322 q 204 474 144 474 q 262 461 231 474 q 163 356 184 429 q 142 235 142 283 q 166 93 142 168 l 346 591 l 343 601 q 297 779 309 712 q 286 877 286 846 q 308 981 286 936 q 458 1064 341 1049 q 483 1065 471 1065 q 515 1063 500 1065 l 516 1066 q 525 1114 525 1093 q 521 1138 525 1127 q 498 1168 511 1165 l 541 1168 m 387 427 l 229 -15 q 274 -32 252 -32 q 354 33 317 -32 q 405 260 405 121 q 404 292 405 276 q 387 427 401 354 m 436 843 l 498 1017 q 486 1018 492 1018 q 477 1017 481 1018 q 439 980 453 1015 q 430 911 430 949 q 436 843 430 880 z "},"%":{"ha":1105,"x_min":95,"x_max":972,"o":"m 910 1084 q 964 1065 956 1084 q 972 1036 972 1046 q 951 983 972 1013 l 233 -34 q 217 -67 218 -57 q 216 -82 216 -78 q 220 -100 216 -93 q 233 -112 226 -111 l 178 -112 q 110 -88 119 -112 q 100 -52 100 -64 q 125 16 100 -22 l 824 1006 q 841 1039 840 1029 q 842 1054 842 1050 q 837 1072 842 1065 q 824 1084 831 1082 l 910 1084 m 250 526 q 114 606 153 526 q 95 694 95 645 q 115 804 95 745 q 255 1003 159 923 q 447 1084 351 1084 q 583 1004 544 1084 q 602 914 602 964 q 582 804 602 864 q 441 606 537 686 q 250 526 346 526 m 257 547 q 358 621 308 547 q 446 804 408 695 q 488 987 485 913 l 488 993 q 439 1061 488 1061 q 339 987 389 1061 q 252 804 290 913 q 210 621 213 695 l 210 614 q 257 547 210 547 m 604 -112 q 469 -31 507 -112 q 450 58 450 8 q 469 168 450 108 q 610 367 514 286 q 802 447 705 447 q 937 366 899 447 q 956 277 956 327 q 937 168 956 227 q 796 -32 892 49 q 604 -112 701 -112 m 612 -90 q 712 -16 663 -90 q 801 168 762 58 q 842 351 840 277 l 842 356 q 794 425 842 425 q 694 351 743 425 q 606 168 645 277 q 564 -16 568 58 l 564 -23 q 612 -90 564 -90 z "},"&":{"ha":956,"x_min":9,"x_max":998,"o":"m 465 254 q 460 306 460 281 q 541 486 460 416 q 672 551 585 517 q 860 646 772 590 q 951 793 948 703 q 998 667 998 720 q 973 598 998 627 q 871 530 945 567 q 720 467 797 493 l 722 467 q 806 385 793 467 q 808 353 808 370 q 766 193 808 282 q 593 -2 713 83 q 281 -93 473 -87 q 66 -8 123 -90 q 9 164 9 73 q 14 225 9 193 q 134 466 35 354 q 402 620 233 578 q 255 682 286 634 q 224 770 224 730 q 234 823 224 796 q 380 991 269 920 q 636 1067 492 1063 q 795 1018 740 1065 q 852 937 850 970 q 854 900 854 904 q 809 796 854 842 q 654 747 760 747 q 741 860 734 821 q 747 914 747 900 q 723 987 747 958 q 649 1026 692 1026 l 648 1026 q 496 958 567 1020 q 391 816 425 897 q 372 729 372 765 q 489 637 372 637 q 506 638 497 637 q 541 640 522 640 q 574 637 560 640 q 286 431 383 587 q 189 136 189 276 l 189 123 q 315 -35 194 -23 q 500 47 416 -31 q 633 220 585 125 q 681 376 681 315 l 681 385 q 639 430 678 430 q 600 422 623 430 q 465 254 490 383 z "},"'":{"ha":245,"x_min":4,"x_max":197,"o":"m 114 1230 q 179 1204 161 1230 q 197 1151 197 1177 q 193 1118 197 1135 l 140 993 q 88 923 120 935 q 28 912 56 912 q 15 913 21 912 l 4 913 l 57 1143 q 61 1173 61 1159 q 60 1187 61 1181 q 45 1218 55 1206 q 28 1230 36 1229 l 114 1230 z "},"(":{"ha":398,"x_min":50,"x_max":612,"o":"m 236 -92 q 58 126 87 -51 q 50 236 50 179 q 106 552 50 368 q 298 896 162 736 q 612 1063 433 1056 q 366 763 487 975 q 195 314 244 552 q 177 155 177 230 q 236 -92 177 17 z "},")":{"ha":575,"x_min":28,"x_max":590,"o":"m 404 1063 q 581 845 553 1022 q 590 735 590 792 q 534 419 590 603 q 342 75 477 235 q 28 -92 206 -85 q 274 208 153 -3 q 445 657 395 419 q 463 817 463 741 q 404 1063 463 954 z "},"*":{"ha":663,"x_min":96,"x_max":492,"o":"m 335 1098 l 406 1098 q 358 1049 376 1090 q 333 968 340 1009 q 408 1024 373 1001 q 464 1048 442 1047 l 466 1048 q 488 1017 485 1048 l 492 948 q 491 949 492 949 l 492 947 q 469 960 486 960 q 431 950 458 960 q 358 916 403 941 q 463 874 426 897 q 479 849 479 863 q 456 813 479 833 l 396 763 q 402 780 402 771 q 383 814 402 794 q 327 857 363 835 l 327 840 q 316 751 327 791 q 253 711 305 711 l 182 711 q 228 758 210 719 q 256 842 246 798 q 180 786 215 809 q 124 762 146 762 l 121 762 q 100 793 103 762 l 96 861 l 97 861 l 97 863 q 117 850 101 850 q 134 851 121 850 q 177 867 146 853 q 236 897 207 880 q 222 901 229 899 q 125 940 158 919 q 109 962 109 949 q 132 997 109 977 l 192 1047 q 185 1029 185 1038 q 193 1008 185 1021 q 222 979 200 996 q 267 950 244 962 l 267 953 q 267 979 267 966 q 275 1060 267 1022 q 335 1098 283 1098 z "},"+":{"ha":770,"x_min":71,"x_max":669,"o":"m 422 412 l 376 196 l 241 196 l 288 412 l 71 412 l 100 549 l 317 549 l 364 765 l 499 765 l 452 549 l 669 549 l 640 412 l 422 412 z "},",":{"ha":397,"x_min":115,"x_max":262,"o":"m 216 102 q 253 83 244 102 q 262 48 262 64 q 258 16 262 33 q 253 3 256 9 q 123 -149 216 -88 q 164 -71 147 -111 l 162 -71 q 124 -52 134 -71 q 115 -16 115 -33 q 121 16 115 -1 q 160 78 133 53 q 216 102 188 102 z "},"-":{"ha":727,"x_min":61,"x_max":621,"o":"m 61 395 l 109 529 l 621 529 l 573 395 l 61 395 z "},".":{"ha":420,"x_min":103,"x_max":250,"o":"m 203 102 q 241 83 231 102 q 250 48 250 64 q 245 16 250 33 q 205 -46 233 -21 q 150 -71 178 -71 q 112 -52 121 -71 q 103 -16 103 -33 q 108 16 103 -1 q 148 78 120 53 q 203 102 175 102 z "},"/":{"ha":545,"x_min":-90,"x_max":709,"o":"m 649 1084 q 702 1064 695 1084 q 709 1034 709 1043 q 688 972 709 1007 l 45 -19 q 27 -56 29 -44 q 26 -73 26 -68 q 30 -94 26 -85 q 43 -106 35 -104 l -12 -106 q -80 -79 -71 -106 q -90 -41 -90 -53 q -62 37 -90 -7 l 561 998 q 578 1035 577 1023 q 580 1051 580 1047 q 576 1072 580 1064 q 563 1084 570 1083 l 649 1084 z "},":":{"ha":454,"x_min":69,"x_max":314,"o":"m 170 230 q 207 211 198 230 q 216 176 216 192 q 211 144 216 161 q 172 82 199 106 q 116 57 144 57 q 78 76 87 57 q 69 111 69 95 q 75 144 69 125 q 114 205 86 180 q 170 230 141 230 m 267 544 q 304 525 295 544 q 314 490 314 506 q 309 457 314 475 q 269 396 296 420 q 213 371 241 371 q 176 390 185 371 q 166 425 166 409 q 172 457 166 440 q 211 519 184 494 q 267 544 239 544 z "},";":{"ha":481,"x_min":87,"x_max":332,"o":"m 286 557 q 323 538 314 557 q 332 503 332 519 q 327 471 332 488 q 288 410 315 435 q 232 385 260 385 q 194 404 203 385 q 185 439 185 423 q 190 471 185 454 q 230 533 202 508 q 286 557 257 557 m 188 244 q 225 225 216 244 q 235 189 235 205 q 230 157 235 174 q 225 144 228 151 q 95 -7 189 53 q 136 71 119 30 l 134 71 q 97 90 106 71 q 87 125 87 109 q 93 157 87 140 q 133 219 105 194 q 188 244 160 244 z "},"<":{"ha":825,"x_min":59,"x_max":743,"o":"m 743 786 l 234 494 l 743 205 l 743 69 l 59 460 l 59 528 l 743 922 l 743 786 z "},"=":{"ha":825,"x_min":75,"x_max":722,"o":"m 161 509 l 210 643 l 722 643 l 673 509 l 161 509 m 75 294 l 123 429 l 635 429 l 587 294 l 75 294 z "},">":{"ha":688,"x_min":0,"x_max":0,"o":""},"?":{"ha":658,"x_min":22,"x_max":809,"o":"m 652 788 q 665 866 665 830 q 654 925 665 898 q 555 987 631 981 q 447 924 490 986 q 404 804 404 862 q 418 720 404 765 l 406 720 q 297 756 332 720 q 276 810 276 779 q 290 867 276 836 q 401 987 321 936 q 593 1040 481 1038 q 771 979 733 1036 q 809 875 809 923 q 792 795 809 838 q 695 650 758 715 q 557 521 633 585 q 368 338 460 441 q 216 83 276 236 q 172 31 201 45 q 120 14 143 16 q 85 13 98 13 q 64 14 73 13 l 54 14 q 230 313 123 188 q 441 532 336 437 q 573 663 517 601 q 652 788 629 726 m 122 -84 q 160 -103 151 -84 q 169 -139 169 -123 q 164 -171 169 -154 q 124 -233 152 -208 q 68 -258 97 -258 q 31 -238 41 -258 q 22 -203 22 -219 q 27 -171 22 -188 q 67 -109 39 -134 q 122 -84 94 -84 z "},"@":{"ha":1183,"x_min":-3,"x_max":1230,"o":"m 1189 415 q 1082 211 1158 331 q 901 -1 1006 91 q 679 -94 797 -94 q 607 -57 633 -92 q 592 -2 592 -36 q 600 52 592 22 q 408 -95 492 -95 q 399 -94 404 -95 q 336 -56 353 -90 q 324 6 324 -31 q 326 32 324 18 q 381 249 335 125 q 488 462 428 374 q 652 573 545 552 q 672 574 663 574 q 761 475 749 574 l 766 490 q 773 524 773 508 q 771 541 773 529 q 761 564 770 553 q 745 576 753 575 l 831 576 q 897 545 878 576 q 908 505 908 527 q 900 465 908 486 l 753 85 q 741 35 741 53 q 742 24 741 28 q 762 7 747 7 l 764 7 q 883 134 805 16 q 1044 453 984 283 q 1085 656 1085 575 q 1075 736 1085 681 q 1013 829 1065 791 q 906 876 960 867 q 839 882 863 882 q 829 882 833 882 l 823 882 q 480 728 650 880 q 217 363 311 575 q 159 111 159 231 q 196 -82 159 40 q 509 -258 233 -205 q 449 -260 477 -260 q 153 -184 267 -260 q 9 29 39 -109 q -3 142 -3 84 q 34 358 -3 231 q 184 628 72 485 q 460 864 296 771 q 825 956 624 956 q 887 947 830 956 q 1016 909 943 939 q 1148 821 1088 880 q 1225 663 1208 762 q 1230 612 1230 639 q 1189 415 1230 528 m 701 321 q 715 376 708 340 q 719 416 719 397 q 715 451 719 429 q 680 477 711 473 l 677 477 q 628 447 656 477 q 538 280 582 391 q 475 102 494 170 q 463 39 464 63 l 463 35 q 476 12 463 14 q 559 74 505 12 q 663 231 614 137 q 664 234 663 232 q 677 260 673 252 q 683 273 682 269 q 687 282 685 277 q 691 296 688 287 q 701 321 694 305 z "},"A":{"ha":1145,"x_min":7,"x_max":1234,"o":"m 236 -86 l 229 -86 q 56 -16 114 -86 q 7 130 7 44 q 9 165 7 147 q 182 457 35 351 q 568 574 330 563 q 709 813 629 701 q 889 999 789 926 q 1110 1072 989 1072 q 1222 994 1190 1072 q 1234 926 1234 965 q 1202 774 1234 863 l 901 1 q 894 -35 894 -19 q 896 -51 894 -39 q 906 -74 898 -62 q 922 -86 914 -85 l 867 -86 q 783 -45 808 -86 q 769 5 769 -22 q 779 57 769 29 l 966 537 q 699 529 832 536 q 600 305 641 401 q 559 213 574 245 q 412 -6 501 71 q 236 -86 322 -82 m 724 580 q 810 581 767 581 q 976 578 894 581 l 983 578 l 1059 776 q 1105 964 1105 904 q 1081 1015 1105 1007 q 1055 1020 1068 1020 q 900 894 987 1020 q 724 580 812 768 m 547 516 q 313 443 426 513 q 153 190 200 374 q 139 83 139 130 q 149 12 139 43 q 213 -37 164 -37 q 258 -29 233 -37 q 422 211 330 -10 q 432 237 427 223 q 547 516 477 357 z "},"B":{"ha":1025,"x_min":14,"x_max":1099,"o":"m 776 1019 l 776 1019 q 916 961 875 1009 q 947 842 957 912 q 822 603 931 742 q 559 391 713 463 q 575 433 566 410 q 642 607 606 512 q 705 769 679 701 q 702 850 722 817 q 635 882 682 882 l 549 882 q 566 870 557 881 q 577 839 574 859 q 570 795 580 820 q 494 596 532 695 q 429 428 462 512 q 288 62 359 245 q 291 -41 265 1 q 376 -83 317 -83 l 431 -83 q 415 -70 423 -81 q 404 -40 406 -59 q 410 5 401 -21 q 467 153 445 95 q 522 296 489 209 q 669 167 621 253 q 692 -18 718 81 q 541 -183 667 -117 q 355 -229 449 -226 q 207 -191 262 -233 q 172 -41 153 -150 q 165 -231 127 -159 q 304 -323 204 -302 q 514 -309 404 -343 q 754 -157 659 -264 q 825 104 849 -50 q 636 344 800 250 q 957 580 846 440 q 1082 829 1068 720 q 1007 1018 1099 945 q 711 1083 914 1092 q 260 890 469 1063 q 19 472 50 718 q 100 327 14 348 q 308 437 187 306 q 250 406 282 419 q 194 397 218 392 q 165 439 170 402 q 271 743 160 591 q 532 966 382 895 q 776 1019 665 1026 z "},"C":{"ha":653,"x_min":20,"x_max":732,"o":"m 538 1072 q 713 954 676 1072 q 732 833 732 897 q 700 646 732 762 q 568 425 668 529 q 425 361 502 363 l 423 361 q 324 458 349 361 q 358 425 336 440 q 400 411 376 411 q 420 413 404 411 q 467 454 436 415 q 574 676 525 532 q 623 924 623 817 l 623 930 q 557 1020 621 1020 q 524 1015 542 1020 q 357 820 446 983 q 207 455 268 656 q 153 140 153 276 q 157 41 153 123 q 276 -43 161 -41 q 500 84 395 -29 q 659 301 606 197 q 683 322 669 319 q 691 323 687 323 q 704 317 699 323 q 707 308 707 313 q 700 287 707 299 q 479 4 596 98 q 267 -86 368 -86 l 258 -86 q 35 100 75 -71 q 20 238 20 165 q 72 536 20 356 q 253 887 123 716 q 538 1072 382 1057 z "},"D":{"ha":1146,"x_min":12,"x_max":1154,"o":"m 492 -289 l 492 -289 l 492 -289 q 833 -51 665 -245 q 1077 390 1001 144 q 1111 832 1154 637 q 850 1076 1069 1027 q 486 1028 667 1103 q 172 807 306 954 q 17 472 37 660 q 98 327 12 348 q 306 437 184 306 q 248 406 280 419 q 192 397 216 392 q 163 439 167 402 q 269 743 158 591 q 530 966 380 895 q 869 992 715 1057 q 980 753 980 924 q 902 379 980 583 q 700 14 824 176 q 439 -197 576 -148 q 227 -184 323 -231 q 149 -21 132 -138 q 141 -205 103 -139 q 279 -291 180 -271 q 492 -289 378 -311 m 286 62 l 286 62 q 492 597 389 329 q 568 795 530 696 q 575 839 578 820 q 563 870 572 859 q 547 882 555 881 l 633 882 q 700 850 680 882 q 703 769 720 817 q 476 182 589 475 q 408 5 442 94 q 401 -40 399 -21 q 413 -70 404 -59 q 429 -83 421 -81 l 374 -83 q 289 -41 314 -83 q 286 62 263 1 z "},"E":{"ha":681,"x_min":19,"x_max":864,"o":"m 400 822 q 382 735 382 771 q 498 644 382 644 q 515 644 507 644 q 541 646 528 646 q 558 646 546 646 q 585 644 570 646 q 300 439 393 593 q 218 178 218 302 q 224 85 218 162 q 351 3 230 8 q 554 107 467 14 q 692 301 642 200 q 716 322 703 319 q 724 323 720 323 q 736 317 732 323 q 739 307 739 313 q 733 287 739 299 q 513 4 629 98 q 300 -86 401 -86 l 291 -86 q 34 84 81 -68 q 19 182 19 132 q 102 427 19 288 q 412 626 186 566 q 257 700 295 641 q 234 777 234 736 q 243 830 234 803 q 390 998 278 926 q 646 1074 501 1070 q 805 1025 750 1072 q 864 915 860 977 l 864 905 q 817 801 864 848 q 664 754 769 754 q 754 890 744 827 q 756 919 756 905 q 732 994 756 964 q 659 1033 702 1033 l 658 1033 q 506 965 576 1026 q 400 822 435 903 z "},"F":{"ha":923,"x_min":42,"x_max":1358,"o":"m 181 425 q 200 386 185 388 q 220 385 216 385 q 269 397 243 385 q 328 430 302 412 q 228 347 277 370 q 152 323 180 323 q 87 346 118 323 q 42 460 42 389 q 71 591 42 517 q 295 906 136 758 q 661 1078 455 1054 q 724 1079 692 1079 q 1026 1055 874 1079 q 1198 1037 1150 1038 q 1249 1036 1245 1036 q 1358 1072 1332 1036 q 1251 897 1337 922 q 1190 888 1225 888 q 1134 892 1164 888 q 971 925 1061 904 q 689 972 830 960 q 743 944 730 968 q 755 901 755 921 q 747 861 755 882 l 640 578 q 691 572 666 575 q 827 558 789 559 q 867 557 864 557 q 955 586 933 557 q 869 446 938 467 q 819 441 847 441 q 647 469 751 441 q 629 473 638 471 q 602 479 615 476 l 418 1 q 412 -34 412 -18 q 412 -43 412 -39 q 424 -74 415 -62 q 439 -86 432 -85 l 385 -86 q 306 -54 326 -86 q 287 5 287 -22 q 297 57 287 29 l 471 514 q 340 534 406 534 q 220 518 280 534 q 401 590 309 582 q 456 592 428 592 q 500 591 478 592 l 613 886 q 623 931 623 913 q 608 959 623 953 q 581 964 595 964 q 536 956 561 964 q 462 924 491 941 q 246 690 311 833 q 180 448 180 546 q 181 425 180 436 z "},"G":{"ha":817,"x_min":22,"x_max":924,"o":"m 548 -13 q 698 135 616 29 q 828 323 781 241 q 845 330 838 330 q 854 328 850 330 q 860 315 860 323 q 856 300 860 309 q 705 85 799 197 q 525 -72 610 -26 q 441 -258 494 -156 q 314 -438 389 -360 q 140 -528 239 -516 l 127 -528 q 47 -502 75 -528 q 22 -443 22 -479 q 24 -420 22 -432 q 167 -224 52 -323 q 374 -90 281 -125 l 503 237 q 354 81 439 148 q 199 15 268 15 l 191 15 q 93 124 101 34 q 84 247 84 215 q 133 534 84 376 q 332 888 194 732 q 684 1074 469 1045 q 732 1077 709 1077 q 884 1031 825 1077 q 924 937 924 999 q 897 813 924 886 q 902 869 902 844 q 854 968 902 945 q 775 985 819 985 q 695 972 739 985 q 419 783 524 922 q 271 491 315 644 q 227 235 227 339 l 227 217 q 271 117 231 117 q 277 117 274 117 q 461 274 370 155 q 605 496 553 393 q 612 531 612 515 q 611 541 612 536 q 600 571 608 559 q 584 583 591 582 l 669 583 q 731 558 716 583 q 747 511 747 533 q 739 471 747 493 l 548 -13 m 77 -418 q 74 -444 74 -432 q 92 -481 74 -471 q 99 -481 96 -481 q 204 -393 132 -481 q 353 -143 283 -294 q 193 -259 283 -173 q 77 -418 104 -345 z "},"H":{"ha":1010,"x_min":22,"x_max":1149,"o":"m 617 1072 q 721 1016 700 1068 q 742 928 742 964 q 709 774 742 864 l 612 524 l 827 524 l 1007 985 q 1014 1020 1014 1004 q 1013 1029 1014 1025 q 1002 1060 1010 1048 q 986 1072 994 1071 l 1072 1072 q 1133 1047 1118 1072 q 1149 1001 1149 1023 q 1141 960 1149 982 l 768 1 q 761 -35 761 -20 q 762 -44 761 -40 q 773 -74 765 -63 q 789 -87 782 -85 l 734 -87 q 656 -55 675 -87 q 636 5 636 -23 q 646 57 636 29 l 807 471 l 591 471 l 408 1 q 401 -33 401 -18 q 402 -43 401 -39 q 413 -74 405 -62 q 429 -86 422 -85 l 374 -86 q 296 -54 315 -86 q 277 5 277 -22 q 287 57 277 29 l 566 776 q 612 964 612 904 q 588 1015 612 1008 q 553 1021 571 1021 q 405 931 485 1021 q 232 669 304 819 q 161 431 161 519 l 161 425 q 180 386 165 388 q 200 385 195 385 q 248 397 222 385 q 307 430 281 412 q 208 347 256 370 q 132 323 159 323 q 66 346 97 323 q 22 458 22 390 q 58 603 22 521 q 291 923 133 777 q 617 1072 450 1070 z "},"I":{"ha":640,"x_min":14,"x_max":734,"o":"m 608 1072 q 713 1016 692 1068 q 734 927 734 964 q 701 774 734 864 l 399 1 q 393 -34 393 -18 q 393 -43 393 -39 q 405 -74 396 -62 q 420 -86 413 -85 l 366 -86 q 287 -54 307 -86 q 268 5 268 -22 q 278 57 268 29 l 557 776 q 603 964 603 904 q 579 1015 603 1008 q 545 1021 562 1021 q 396 931 476 1021 q 223 669 295 819 q 152 431 152 519 l 152 425 q 171 386 156 388 q 191 385 186 385 q 240 397 213 385 q 298 430 273 412 q 199 347 248 370 q 123 323 151 323 q 57 346 88 323 q 14 458 14 389 q 50 603 14 520 q 283 923 124 777 q 608 1072 441 1070 z "},"J":{"ha":667,"x_min":-122,"x_max":742,"o":"m 617 1072 q 721 1016 700 1068 q 742 926 742 964 q 709 774 742 863 q 595 479 659 643 q 404 -13 490 207 q 552 129 471 28 q 681 323 633 231 q 695 340 689 340 q 703 341 701 341 q 718 335 712 341 q 721 326 721 331 q 719 317 721 321 q 565 84 662 196 q 380 -72 467 -28 q 297 -258 349 -156 q 170 -438 245 -360 q -4 -528 95 -516 l -16 -528 q -98 -502 -69 -528 q -122 -443 -122 -479 q -120 -420 -122 -432 q 23 -224 -92 -323 q 230 -90 138 -125 l 566 776 q 611 964 611 904 q 587 1015 611 1008 q 553 1021 570 1021 q 406 931 486 1021 q 234 668 305 819 q 163 430 163 518 l 163 425 q 182 386 168 388 q 202 385 197 385 q 251 397 224 385 q 310 430 284 412 q 210 347 259 370 q 134 323 161 323 q 68 346 100 323 q 25 459 25 390 q 60 603 25 521 q 292 923 134 777 q 617 1072 450 1070 m -67 -418 q -71 -444 -71 -433 q -52 -481 -71 -471 q -45 -481 -49 -481 q 60 -393 -12 -481 q 208 -143 140 -294 q 49 -259 138 -173 q -67 -418 -41 -345 z "},"K":{"ha":1099,"x_min":31,"x_max":1321,"o":"m 626 1072 q 730 1016 709 1068 q 751 928 751 964 q 718 774 751 864 l 556 356 q 768 684 654 519 q 991 968 882 850 q 1141 1073 1092 1069 q 1200 1076 1190 1076 q 1321 1032 1274 1076 l 1319 1032 q 1256 1018 1294 1032 q 1175 967 1217 1002 q 784 550 1002 812 q 932 -10 822 205 q 1008 -86 980 -83 l 953 -86 q 860 -70 900 -86 q 795 -4 819 -54 q 741 214 761 73 q 718 471 722 355 q 554 248 639 376 q 412 -16 469 119 q 408 -39 408 -28 q 409 -51 408 -45 q 422 -76 414 -66 q 438 -86 431 -85 l 383 -86 q 305 -54 324 -86 q 286 5 286 -22 q 296 57 286 29 l 575 776 q 621 964 621 904 q 597 1015 621 1008 q 562 1021 580 1021 q 414 931 494 1021 q 241 669 313 819 q 170 431 170 519 l 170 425 q 189 386 174 388 q 209 385 204 385 q 258 397 231 385 q 316 430 290 412 q 217 347 265 370 q 140 323 168 323 q 75 346 106 323 q 31 458 31 390 q 66 603 31 521 q 300 923 142 777 q 626 1072 459 1070 z "},"L":{"ha":648,"x_min":-12,"x_max":981,"o":"m -12 -229 q 269 -65 122 -65 q 292 -66 280 -65 q 321 -67 304 -66 q 287 3 287 -41 q 297 57 287 27 l 576 776 q 622 964 622 904 q 598 1015 622 1008 q 564 1021 581 1021 q 415 931 495 1021 q 242 668 314 819 q 170 430 170 518 l 170 425 q 190 386 175 388 q 210 385 205 385 q 258 397 232 385 q 317 430 292 412 q 218 347 267 370 q 141 323 169 323 q 76 346 107 323 q 33 458 33 390 q 68 603 33 521 q 301 923 143 777 q 627 1072 460 1070 q 731 1016 710 1068 q 752 926 752 964 q 719 774 752 863 l 418 1 q 413 -23 413 -12 q 412 -38 412 -35 q 417 -66 412 -53 q 441 -87 424 -83 q 553 -109 494 -97 q 782 -152 699 -141 q 897 -163 866 -163 q 981 -140 960 -163 q 945 -246 972 -216 q 876 -287 918 -277 q 848 -290 863 -290 q 743 -273 808 -290 q 549 -219 652 -251 q 315 -159 406 -174 q 236 -152 275 -152 q -12 -229 106 -152 z "},"M":{"ha":1323,"x_min":20,"x_max":1453,"o":"m 1067 826 q 1204 990 1122 909 q 1366 1075 1287 1072 q 1435 1042 1417 1073 q 1453 983 1453 1010 q 1434 894 1453 946 l 1088 1 q 1081 -33 1081 -18 q 1082 -43 1081 -39 q 1093 -74 1084 -62 q 1109 -86 1101 -85 l 1054 -86 q 976 -54 995 -86 q 956 5 956 -22 q 966 57 956 29 l 1291 896 q 1304 947 1304 929 q 1303 958 1304 954 q 1282 975 1298 975 l 1280 975 q 1180 887 1247 969 q 1043 694 1112 806 q 937 489 974 583 l 747 1 q 741 -34 741 -18 q 741 -43 741 -39 q 752 -74 744 -62 q 768 -86 761 -85 l 714 -86 q 635 -54 654 -86 q 616 5 616 -22 q 626 57 616 29 l 951 896 q 964 947 964 928 q 962 958 964 953 q 942 975 958 975 l 940 975 q 821 865 902 967 q 578 444 667 658 l 408 0 q 401 -34 401 -18 q 401 -44 401 -39 q 413 -74 404 -63 q 429 -87 421 -85 l 374 -87 q 295 -55 315 -87 q 276 5 276 -23 q 286 57 276 28 l 564 776 q 609 964 609 904 q 585 1015 609 1008 q 551 1021 568 1021 q 402 931 482 1021 q 230 669 301 819 q 158 431 158 519 l 158 425 q 177 386 162 388 q 197 385 193 385 q 246 397 219 385 q 304 430 279 412 q 205 347 254 370 q 129 323 157 323 q 63 346 94 323 q 20 458 20 389 q 56 603 20 520 q 289 923 130 777 q 614 1072 448 1070 q 715 1020 690 1069 q 739 927 739 972 q 722 819 739 880 q 860 987 775 902 q 1025 1075 945 1072 q 1095 1042 1077 1073 q 1112 983 1112 1010 q 1093 894 1112 947 l 1067 826 z "},"N":{"ha":979,"x_min":20,"x_max":1113,"o":"m 722 819 q 861 987 776 902 q 1026 1075 946 1072 q 1095 1042 1078 1073 q 1113 983 1113 1010 q 1094 894 1113 947 l 749 1 q 741 -35 741 -19 q 742 -43 741 -39 q 753 -73 745 -62 q 770 -85 762 -84 l 715 -85 q 636 -54 656 -85 q 616 5 616 -22 q 627 58 616 30 l 951 896 q 964 947 964 928 q 963 958 964 953 q 943 975 958 975 l 941 975 q 822 865 903 967 q 580 444 668 658 l 408 1 q 401 -34 401 -18 q 402 -43 401 -39 q 413 -74 405 -62 q 429 -86 422 -85 l 375 -86 q 296 -54 315 -86 q 277 5 277 -22 q 287 57 277 29 l 564 776 q 610 964 610 904 q 586 1015 610 1008 q 551 1021 569 1021 q 403 931 483 1021 q 231 669 302 819 q 159 431 159 519 l 159 425 q 178 386 163 388 q 198 385 193 385 q 247 397 220 385 q 305 430 279 412 q 206 347 254 370 q 130 323 157 323 q 64 346 95 323 q 20 458 20 389 q 56 603 20 520 q 290 923 131 777 q 615 1072 448 1070 q 715 1020 691 1069 q 740 927 740 972 q 722 819 740 880 z "},"O":{"ha":853,"x_min":14,"x_max":909,"o":"m 747 1072 q 903 958 896 1057 q 909 839 909 860 q 829 480 909 680 q 581 85 739 254 q 233 -86 423 -83 q 38 42 62 -72 q 14 221 14 155 q 57 486 14 342 q 259 879 123 707 q 566 1072 395 1051 q 340 822 440 995 q 192 473 241 650 q 142 172 142 297 q 144 118 142 144 q 254 -43 156 -24 l 262 -43 q 475 98 372 -43 q 659 448 582 244 q 750 756 736 651 q 764 897 764 862 q 722 1015 764 991 q 692 1020 707 1020 q 567 930 628 1020 q 446 683 492 821 q 401 469 401 545 q 401 454 401 461 q 421 413 406 415 q 440 411 437 411 q 491 425 463 411 q 548 458 524 440 q 383 361 458 361 l 381 361 q 282 425 306 363 q 272 500 272 460 q 313 682 272 580 q 491 953 374 835 q 747 1072 608 1072 z "},"P":{"ha":1002,"x_min":16,"x_max":1120,"o":"m 779 1019 l 779 1019 q 919 961 878 1009 q 949 842 960 912 q 825 603 933 742 q 562 391 716 463 q 566 404 564 397 q 638 588 597 483 q 707 769 679 694 q 705 850 725 817 q 638 882 685 882 l 552 882 q 568 870 559 881 q 579 839 576 859 q 573 795 583 820 q 500 604 536 699 q 432 428 466 516 q 290 62 361 245 q 293 -41 268 1 q 378 -83 319 -83 l 433 -83 q 417 -70 426 -81 q 406 -40 409 -59 q 412 5 403 -21 q 463 135 443 83 q 525 296 487 198 q 736 389 610 318 q 969 572 862 460 q 1103 829 1076 684 q 1027 1018 1120 945 q 732 1083 935 1092 q 262 890 472 1063 q 22 472 52 718 q 103 327 16 348 q 311 437 189 306 q 253 406 285 419 q 196 397 221 392 q 168 439 172 402 q 274 743 163 591 q 535 966 385 895 q 779 1019 667 1026 z "},"Q":{"ha":844,"x_min":11,"x_max":922,"o":"m 743 1072 q 886 977 865 1062 q 907 833 907 892 q 882 648 907 750 q 741 304 838 475 q 509 22 643 133 q 522 13 515 18 q 738 -110 643 -65 q 876 -155 832 -155 q 922 -140 905 -155 q 870 -267 910 -264 q 824 -270 830 -270 q 661 -214 754 -270 q 467 -79 560 -153 q 428 -49 448 -64 q 416 -39 422 -44 q 238 -86 330 -86 l 231 -86 q 35 42 59 -72 q 11 221 11 155 q 54 486 11 342 q 256 879 121 707 q 563 1072 392 1051 q 338 822 437 995 q 189 473 238 650 q 140 172 140 297 q 142 118 140 144 q 251 -43 153 -24 q 264 -43 258 -43 q 371 -4 318 -43 q 288 45 321 35 q 241 56 256 56 q 182 35 210 56 q 297 117 237 117 l 302 117 q 443 62 365 114 q 642 412 557 200 q 744 740 727 624 q 762 897 762 856 q 720 1015 762 990 q 690 1020 705 1020 q 564 930 625 1020 q 443 683 488 821 q 398 469 398 545 q 399 454 398 461 q 419 413 404 415 q 437 411 434 411 q 488 425 460 411 q 545 458 521 440 q 380 361 456 361 l 378 361 q 279 425 302 363 q 269 500 269 460 q 310 682 269 580 q 488 953 371 835 q 743 1072 606 1072 z "},"R":{"ha":993,"x_min":12,"x_max":1116,"o":"m 774 1019 l 774 1019 q 915 961 873 1009 q 945 842 956 912 q 821 603 929 742 q 557 391 712 463 q 630 580 588 470 q 703 769 673 690 q 701 850 721 817 q 634 882 681 882 l 548 882 q 564 870 555 881 q 575 839 572 859 q 569 795 578 820 q 492 595 530 695 q 428 428 460 512 q 286 62 357 245 q 289 -41 264 1 q 374 -83 315 -83 l 429 -83 q 413 -70 422 -81 q 402 -40 405 -59 q 408 5 399 -21 q 454 123 435 75 q 484 200 469 160 q 521 296 499 239 l 521 296 q 574 103 538 203 q 669 -53 611 3 q 810 -69 728 -109 l 867 -42 q 780 21 836 -41 q 673 168 724 83 q 608 327 623 254 q 907 515 753 385 q 1099 829 1060 644 q 1023 1018 1116 945 q 728 1083 930 1092 q 258 890 468 1063 q 17 472 48 718 q 98 327 12 348 q 307 437 185 306 q 249 406 281 419 q 192 397 217 392 q 163 439 168 402 q 270 743 158 591 q 531 966 381 895 q 774 1019 663 1026 z "},"S":{"ha":779,"x_min":22,"x_max":975,"o":"m 682 271 q 532 0 646 94 q 292 -94 418 -93 q 50 51 102 -85 q 22 201 22 123 q 58 394 22 273 q 206 603 94 514 q 326 646 267 646 q 374 642 335 646 q 443 557 413 637 q 374 588 407 588 q 334 577 361 588 q 271 515 306 567 q 175 291 216 432 q 149 127 149 201 q 157 48 149 85 q 246 -39 186 -39 q 304 -26 258 -39 q 422 82 349 -14 q 518 296 496 178 q 526 405 526 346 q 520 514 526 456 q 512 576 516 544 q 494 747 500 661 q 493 787 493 768 q 508 917 493 852 q 579 1028 524 982 q 746 1074 634 1074 q 909 1025 850 1074 q 975 914 968 977 q 975 900 975 907 q 927 800 975 846 q 764 754 880 754 q 854 893 844 827 q 857 924 857 909 q 833 1001 857 970 q 762 1041 803 1041 l 759 1041 q 705 1011 729 1041 q 672 871 673 962 l 672 861 q 682 668 672 774 q 695 468 695 568 q 682 271 695 369 z "},"T":{"ha":629,"x_min":77,"x_max":1394,"o":"m 730 972 q 726 972 728 972 q 1006 925 866 960 q 1169 893 1096 904 q 1227 888 1201 888 q 1286 897 1261 888 q 1394 1073 1373 923 q 1284 1036 1367 1036 q 1233 1037 1280 1036 q 1061 1055 1185 1038 q 760 1079 910 1079 q 696 1078 728 1079 q 331 906 490 1055 q 106 591 171 758 q 77 460 77 517 q 122 346 77 389 q 187 323 153 323 q 263 347 215 323 q 363 430 312 370 q 304 397 337 412 q 256 385 278 385 q 236 387 251 385 q 216 426 220 389 q 216 447 216 436 q 267 659 216 532 q 437 885 318 785 q 498 923 456 900 q 583 958 541 945 q 620 964 604 964 q 648 958 637 964 q 659 932 659 951 q 649 886 659 915 l 333 57 q 323 5 323 29 q 342 -54 323 -22 q 421 -86 362 -86 l 476 -86 q 460 -74 469 -85 q 448 -43 452 -62 q 448 -35 448 -39 q 455 1 448 -19 l 783 861 q 791 901 791 883 q 780 942 791 920 q 730 972 769 965 z "},"U":{"ha":1067,"x_min":24,"x_max":1233,"o":"m 618 1072 q 723 1016 702 1068 q 743 928 743 964 q 710 774 743 864 q 690 723 705 759 q 610 527 659 649 q 523 282 562 406 q 480 116 484 159 q 477 67 477 73 q 511 14 477 14 q 525 16 517 14 q 675 136 601 43 q 809 335 750 230 q 898 505 869 441 l 1091 985 q 1098 1020 1098 1004 q 1097 1029 1098 1025 q 1086 1060 1095 1048 q 1070 1072 1078 1071 l 1156 1072 q 1218 1047 1202 1072 q 1233 1001 1233 1022 q 1225 960 1233 982 l 840 1 q 833 -35 833 -19 q 834 -44 833 -39 q 845 -74 837 -63 q 861 -87 854 -85 l 806 -87 q 728 -55 747 -87 q 709 5 709 -23 q 719 57 709 28 l 748 133 q 600 -21 685 45 q 448 -86 515 -86 l 438 -86 q 349 50 349 -67 q 351 85 349 66 q 429 416 365 235 q 543 715 493 597 q 568 776 559 753 q 613 964 613 904 q 589 1015 613 1008 q 555 1021 572 1021 q 406 931 486 1021 q 234 669 305 819 q 162 431 162 519 l 162 425 q 181 386 166 388 q 201 385 197 385 q 250 397 223 385 q 309 430 283 412 q 209 347 258 370 q 133 323 161 323 q 67 346 98 323 q 24 458 24 390 q 59 603 24 521 q 293 923 134 777 q 618 1072 452 1070 z "},"V":{"ha":1021,"x_min":33,"x_max":1334,"o":"m 1245 985 q 1113 672 1202 859 q 909 304 1024 486 q 673 8 793 122 q 479 -89 570 -89 q 448 -86 463 -89 q 361 60 361 -58 q 368 159 361 76 q 438 418 375 241 q 551 711 500 594 q 577 776 568 751 q 623 964 623 904 q 599 1015 623 1008 q 564 1021 582 1021 q 406 920 496 1021 q 242 666 315 819 q 172 431 172 519 l 172 425 q 201 385 176 388 q 211 385 206 385 q 263 398 233 385 q 318 430 292 412 q 200 338 267 370 q 142 323 170 323 q 77 346 108 323 q 33 458 33 389 q 89 648 33 520 q 302 923 144 777 q 628 1072 461 1070 q 742 992 711 1068 q 753 927 753 964 q 720 774 753 864 q 699 723 714 759 q 620 527 668 649 q 532 282 572 406 q 487 81 493 159 q 486 67 486 73 q 521 14 486 14 q 534 16 527 14 q 741 207 642 54 q 923 547 840 359 q 1061 882 1005 736 q 1079 929 1071 907 q 1162 1031 1105 989 q 1279 1072 1220 1072 l 1334 1072 q 1291 1047 1319 1070 q 1245 985 1262 1023 z "},"W":{"ha":1211,"x_min":28,"x_max":1472,"o":"m 623 1072 q 727 1016 706 1068 q 748 927 748 964 q 715 774 748 864 q 693 721 709 758 q 612 519 661 644 q 522 270 563 395 q 475 103 480 146 q 470 51 470 60 q 494 11 470 11 q 513 16 502 11 q 680 255 598 66 q 825 635 761 444 q 873 768 851 709 q 880 803 880 787 q 880 812 880 808 q 868 843 877 831 q 852 855 860 854 l 938 855 q 1000 830 985 855 q 1015 784 1015 806 q 1007 743 1015 765 q 878 433 947 595 q 761 178 808 271 q 742 121 751 158 q 730 61 733 83 q 729 37 729 48 q 734 -5 729 14 q 768 -35 742 -35 q 858 46 813 -35 q 947 243 902 127 l 1218 929 q 1301 1031 1244 989 q 1418 1072 1358 1072 l 1472 1072 q 1429 1047 1458 1070 q 1383 985 1400 1023 l 1092 245 q 950 8 1034 100 q 774 -87 866 -83 q 686 -51 704 -86 q 668 28 668 -15 q 671 73 668 48 q 561 -43 618 -1 q 444 -86 503 -86 q 435 -87 439 -87 q 426 -86 431 -87 q 340 43 340 -68 q 342 77 340 59 q 421 397 356 220 q 539 697 486 574 q 572 776 561 747 q 617 964 617 904 q 593 1015 617 1008 q 559 1021 576 1021 q 411 931 491 1021 q 238 668 310 819 q 166 430 166 518 l 166 425 q 186 386 171 388 q 205 385 201 385 q 254 397 228 385 q 313 430 288 412 q 213 347 262 370 q 137 323 165 323 q 72 346 103 323 q 28 458 28 390 q 64 603 28 521 q 297 923 139 777 q 623 1072 456 1070 z "},"X":{"ha":1080,"x_min":25,"x_max":1263,"o":"m 594 1022 q 406 902 507 1019 q 234 646 304 785 q 163 429 163 506 l 163 425 q 183 386 168 388 q 203 385 198 385 q 252 397 224 385 q 310 430 284 412 q 211 347 259 370 q 134 323 162 323 q 68 346 100 323 q 25 458 25 390 q 60 603 25 521 q 294 923 136 777 q 620 1072 452 1070 q 812 967 749 1062 q 876 751 876 872 l 881 660 q 1100 911 1036 823 q 1163 1035 1163 1000 q 1132 1073 1163 1063 q 1259 1039 1255 1073 q 1263 1002 1263 1006 q 1172 819 1263 939 q 889 500 1076 692 l 916 1 q 947 -60 924 -37 q 985 -86 970 -83 l 930 -86 q 820 -45 871 -86 q 764 57 769 -4 l 750 354 q 513 85 584 182 q 441 -48 441 -11 q 473 -87 441 -77 q 345 -53 348 -87 q 342 -15 342 -19 q 435 170 342 49 q 722 493 532 298 l 743 515 l 732 750 q 721 856 732 793 q 680 968 709 919 q 594 1022 650 1017 z "},"Y":{"ha":1085,"x_min":18,"x_max":1227,"o":"m 613 1072 q 718 1016 696 1068 q 739 927 739 964 q 705 774 739 864 q 686 728 699 759 q 616 554 658 661 q 543 342 575 448 q 510 203 510 236 q 509 169 509 170 q 546 115 509 115 q 562 117 553 115 q 763 283 676 160 q 892 505 849 407 l 1086 985 q 1093 1020 1093 1004 q 1092 1029 1093 1025 q 1081 1060 1089 1048 q 1065 1072 1072 1071 l 1150 1072 q 1212 1047 1197 1072 q 1227 1001 1227 1023 q 1219 960 1227 983 l 833 -13 q 983 135 901 29 q 1113 323 1065 241 q 1130 330 1122 330 q 1139 328 1135 330 q 1145 315 1145 323 q 1141 300 1145 309 q 989 85 1084 197 q 810 -72 895 -26 q 788 -129 799 -98 q 671 -384 745 -259 q 467 -528 597 -509 l 455 -528 q 374 -502 403 -528 q 349 -443 349 -479 q 351 -420 349 -432 q 473 -224 377 -323 q 659 -90 569 -125 l 787 237 q 638 81 724 148 q 484 15 553 15 l 476 15 q 379 154 379 35 l 379 165 q 439 453 385 295 q 540 720 494 612 q 562 776 553 753 q 608 964 608 904 q 584 1015 608 1008 q 549 1021 567 1021 q 401 931 481 1021 q 228 669 300 819 q 157 431 157 519 l 157 425 q 176 386 161 388 q 196 385 191 385 q 245 397 218 385 q 303 430 277 412 q 204 347 252 370 q 127 323 155 323 q 62 346 93 323 q 18 458 18 389 q 54 603 18 520 q 288 923 129 777 q 613 1072 446 1070 m 404 -418 q 401 -444 401 -432 q 420 -481 401 -471 q 426 -481 422 -481 q 511 -393 455 -481 q 637 -143 571 -294 q 499 -259 570 -173 q 404 -418 429 -345 z "},"Z":{"ha":918,"x_min":35,"x_max":1351,"o":"m 1099 897 q 963 925 1036 908 q 667 973 815 963 l 665 973 q 380 873 491 973 q 218 644 269 773 q 173 447 173 529 q 174 426 173 436 q 203 385 178 389 q 213 385 208 385 q 265 398 235 385 q 320 430 294 412 q 202 338 269 370 q 144 323 172 323 q 79 346 110 323 q 35 460 35 389 q 81 637 35 516 q 288 906 128 758 q 653 1078 448 1055 q 718 1079 685 1079 q 1019 1055 867 1079 q 1233 1036 1143 1038 l 1242 1036 q 1351 1073 1324 1036 q 1311 945 1339 981 q 1248 890 1282 909 q 1194 848 1220 875 l 541 7 q 411 -86 479 -67 q 549 -104 467 -93 q 801 -134 668 -119 q 1025 -148 928 -148 q 1082 -148 1030 -148 q 1158 -119 1135 -147 q 1040 -285 1131 -268 q 1003 -288 1025 -288 q 844 -268 952 -288 q 599 -218 735 -249 q 383 -176 459 -187 q 303 -169 342 -169 q 55 -245 173 -169 q 127 -164 81 -198 q 227 -101 173 -130 q 382 17 321 -54 l 1008 823 q 1099 897 1045 868 z "},"[":{"ha":519,"x_min":55,"x_max":777,"o":"m 214 -176 q 88 -131 121 -176 q 55 -50 55 -85 q 60 -18 55 -34 q 460 1020 260 497 q 543 1122 486 1081 q 659 1164 600 1164 l 777 1164 q 660 1109 699 1148 q 608 1030 621 1070 q 459 641 515 787 q 351 362 403 496 q 220 22 300 229 q 195 -44 208 -10 q 186 -88 186 -68 q 192 -117 186 -104 q 227 -160 205 -146 q 256 -176 248 -175 l 214 -176 z "},"\\":{"ha":463,"x_min":-120,"x_max":680,"o":"m -60 1084 l 26 1084 q 14 1074 19 1083 q 9 1051 9 1064 q 10 1042 9 1047 q 28 998 13 1023 l 651 37 q 680 -41 680 -7 q 675 -64 680 -54 q 602 -106 661 -106 l 547 -106 q 559 -95 554 -104 q 564 -73 564 -85 q 563 -63 564 -68 q 545 -19 561 -44 l -98 972 q -120 1034 -120 1007 q -117 1052 -120 1043 q -60 1084 -106 1084 z "},"]":{"ha":617,"x_min":-68,"x_max":654,"o":"m 495 1158 q 621 1113 588 1158 q 654 1033 654 1068 q 648 1001 654 1017 q 248 -37 449 486 q 166 -140 223 -98 q 50 -181 109 -181 l -68 -181 q 48 -126 9 -165 q 100 -47 87 -87 q 251 343 195 197 q 359 623 307 489 q 492 968 410 758 q 515 1027 503 996 q 523 1069 523 1050 q 517 1099 523 1086 q 482 1143 503 1128 q 452 1158 461 1158 l 495 1158 z "},"^":{"ha":825,"x_min":93,"x_max":662,"o":"m 658 1021 q 662 994 662 1006 q 649 953 662 973 q 610 920 635 932 q 541 908 584 908 l 511 908 q 517 915 513 909 q 525 931 522 920 q 528 949 528 939 q 527 964 528 954 q 516 996 526 974 l 420 1131 l 247 996 q 219 958 228 974 q 208 931 210 942 q 208 923 208 927 q 209 913 208 918 q 212 908 210 909 l 182 908 q 119 920 139 908 q 94 958 98 932 q 93 965 93 961 q 117 1021 93 988 l 328 1185 q 404 1225 371 1219 q 406 1226 404 1225 q 433 1230 413 1228 l 438 1230 q 464 1226 458 1228 q 466 1225 465 1225 q 524 1185 496 1219 l 658 1021 z "},"_":{"ha":812,"x_min":-18,"x_max":852,"o":"m -18 -92 l 7 -24 l 852 -24 l 828 -92 l -18 -92 z "},"`":{"ha":694,"x_min":0,"x_max":0,"o":""},"a":{"ha":569,"x_min":-78,"x_max":618,"o":"m 429 580 q 491 555 476 580 q 507 508 507 530 q 498 467 507 489 l 352 88 q 338 37 338 55 q 340 27 338 31 q 361 9 346 9 l 363 9 q 455 99 395 15 q 576 296 515 183 q 594 317 586 315 q 606 320 602 320 q 615 316 611 320 q 618 308 618 313 q 615 296 618 303 q 574 214 596 256 q 505 96 551 168 q 399 -33 458 24 q 277 -90 340 -90 q 211 -61 231 -89 q 191 2 191 -33 q 197 55 191 25 q 6 -92 91 -92 q -3 -91 2 -92 q -64 -57 -50 -87 q -78 9 -78 -27 q -77 35 -78 22 q -20 252 -66 127 q 85 465 26 377 q 250 576 144 555 q 271 578 260 578 q 359 479 347 578 l 365 493 q 372 528 372 512 q 371 537 372 532 q 360 567 368 556 q 344 580 351 578 l 429 580 m 299 324 q 312 372 306 344 q 317 419 317 400 q 315 446 317 433 q 279 479 310 475 l 275 479 q 227 450 254 479 q 136 283 180 394 q 73 104 92 172 q 62 53 62 66 q 62 37 62 39 q 74 15 62 17 l 75 15 q 157 77 104 15 q 261 233 212 140 l 262 237 q 276 263 271 255 q 282 276 280 271 q 285 286 283 280 q 290 299 287 290 q 299 324 293 308 z "},"b":{"ha":513,"x_min":-101,"x_max":567,"o":"m 143 16 q 206 93 172 23 q 185 153 185 111 q 189 189 185 169 q 220 261 198 232 q 267 291 243 291 q 288 283 279 291 q 319 381 307 336 q 328 441 328 418 q 328 452 328 447 q 301 481 323 481 l 298 481 q 236 447 265 477 q 186 382 206 416 q 160 332 165 348 l 144 290 q 109 149 117 220 q 106 104 106 125 q 112 52 106 74 q 142 16 121 16 l 143 16 m 330 68 q 309 36 319 52 q 138 -90 237 -77 q 128 -90 133 -90 q 50 38 50 -90 l 50 48 l 31 -2 q 24 -36 24 -20 q 25 -53 24 -41 q 36 -76 27 -65 q 52 -89 44 -87 l -3 -89 q -87 -47 -62 -89 q -101 2 -101 -25 q -91 54 -101 26 l 192 783 q 199 817 199 802 q 197 834 199 823 q 187 858 195 846 q 171 870 178 869 l 256 870 q 323 838 303 870 q 334 798 334 820 q 326 758 334 779 l 219 483 q 382 579 307 579 q 401 578 392 579 q 481 486 481 559 q 479 466 481 477 q 442 308 473 397 q 368 135 411 218 q 461 207 422 159 q 526 306 501 254 q 531 312 528 308 q 540 318 534 315 q 551 320 544 320 l 554 320 q 566 311 566 318 l 567 307 q 564 294 567 300 q 471 156 528 218 q 330 68 413 93 z "},"c":{"ha":483,"x_min":-42,"x_max":524,"o":"m 524 299 q 432 106 481 194 q 312 -36 383 18 q 130 -90 241 -90 q -11 -22 29 -90 q -42 106 -42 33 q -36 185 -42 125 q 18 344 -31 245 q 142 512 66 444 q 310 580 218 580 q 403 539 380 580 q 422 463 422 506 q 419 422 422 454 q 400 344 416 390 q 374 283 385 298 q 382 364 382 326 q 374 435 382 393 q 325 477 366 477 q 209 406 262 477 q 127 241 155 334 q 108 120 108 176 q 116 47 108 96 q 192 -12 124 -1 l 199 -12 q 321 47 263 -12 q 423 186 378 106 q 492 320 467 266 q 505 329 497 329 q 510 329 506 329 q 521 321 515 329 q 524 307 524 315 q 524 299 524 304 z "},"d":{"ha":570,"x_min":-75,"x_max":622,"o":"m 545 869 q 606 844 591 869 q 622 797 622 819 q 614 756 622 778 l 354 88 q 341 37 341 56 q 342 27 341 31 q 363 9 348 9 l 365 9 q 457 99 397 15 q 578 296 517 183 q 596 317 589 315 q 608 320 604 320 q 618 316 614 320 q 621 308 621 313 q 618 296 621 303 q 576 214 598 256 q 507 96 553 168 q 401 -33 460 24 q 279 -90 342 -90 q 213 -61 233 -89 q 193 1 193 -33 q 200 55 193 25 q 9 -92 93 -92 q 0 -91 4 -92 q -61 -57 -47 -87 q -75 9 -75 -27 q -74 35 -75 22 q -18 252 -64 127 q 88 465 28 377 q 252 576 146 555 q 273 578 263 578 q 361 477 351 578 l 479 782 q 487 817 487 802 q 486 826 487 822 q 475 856 484 845 q 458 869 467 867 l 545 869 m 302 323 q 315 374 311 348 q 319 415 319 400 q 316 448 319 432 q 281 479 310 476 l 277 479 q 229 450 256 479 q 139 283 182 394 q 76 104 95 172 q 64 53 65 66 q 64 37 64 39 q 77 15 64 17 l 77 15 q 160 76 106 15 q 262 229 214 137 q 276 258 271 248 q 283 273 281 267 q 287 284 285 278 q 302 323 290 294 z "},"e":{"ha":484,"x_min":-42,"x_max":524,"o":"m 524 299 q 433 106 482 194 q 312 -36 383 18 q 130 -90 241 -90 q -10 -22 29 -90 q -42 109 -42 33 q -36 186 -42 127 q 18 344 -31 245 q 143 512 66 444 q 311 580 219 580 q 387 555 361 580 q 418 493 412 530 q 418 471 418 481 q 315 261 418 358 q 108 111 212 165 q 192 -12 108 5 l 199 -12 q 321 47 263 -12 q 423 186 378 106 q 492 320 467 266 q 505 329 497 329 q 511 329 506 329 q 521 321 515 329 q 524 307 524 315 q 524 299 524 304 m 111 169 q 239 269 179 209 q 331 385 300 328 q 351 447 351 421 q 344 473 351 462 q 325 477 336 477 q 190 379 250 477 q 111 169 129 280 z "},"f":{"ha":233,"x_min":-187,"x_max":295,"o":"m 155 580 q 216 555 201 580 q 232 508 232 530 q 224 467 232 489 l 81 97 q 183 194 137 132 q 254 306 229 255 q 258 312 255 308 q 267 318 262 315 q 279 320 272 320 l 282 320 q 294 313 294 318 q 295 307 295 309 q 292 294 295 300 q 211 161 261 230 q 95 52 161 93 q 119 -92 119 -20 q 98 -226 119 -159 q -6 -384 52 -357 q -92 -411 -65 -411 q -165 -372 -136 -411 q -187 -295 -187 -345 q -152 -133 -187 -232 l 90 493 q 97 528 97 513 q 96 537 97 533 q 85 567 94 556 q 68 580 77 578 l 155 580 m 56 32 l -4 -122 q -7 -131 -5 -125 q -31 -193 -17 -153 q -47 -252 -45 -232 q -50 -277 -50 -272 q -35 -307 -50 -302 q -30 -307 -33 -307 q 48 -208 12 -307 q 69 -127 64 -164 q 74 -75 74 -90 q 56 32 74 -26 z "},"g":{"ha":578,"x_min":-119,"x_max":629,"o":"m 435 579 q 496 554 481 579 q 511 508 511 530 q 503 467 511 489 l 335 32 q 476 156 401 71 q 596 320 550 241 q 613 327 606 327 q 623 324 618 327 q 629 312 629 320 q 625 296 629 305 q 483 106 568 197 q 312 -26 397 16 q 233 -191 281 -113 q 117 -344 173 -286 q -1 -409 62 -402 l -14 -410 q -95 -383 -66 -410 q -119 -324 -119 -360 q -117 -302 -119 -313 q -10 -142 -94 -208 q 161 -45 73 -75 l 198 48 q 12 -92 94 -92 q 3 -92 7 -92 q -58 -58 -44 -87 q -73 9 -73 -28 q -71 34 -73 21 q -15 252 -62 127 q 91 464 31 376 q 255 576 149 554 q 275 577 266 577 q 364 478 353 577 l 370 492 q 376 526 376 511 q 376 536 376 532 q 365 567 373 555 q 349 579 356 578 l 435 579 m -64 -300 q -67 -325 -67 -314 q -50 -362 -67 -353 q -38 -365 -44 -365 q 140 -98 22 -365 q 16 -177 74 -123 q -64 -300 -42 -231 m 304 323 q 317 371 311 343 q 323 416 323 398 q 320 445 323 431 q 283 479 315 475 l 280 479 q 231 450 259 479 q 141 282 185 393 q 79 104 97 172 q 67 52 68 66 q 66 37 66 39 q 79 14 66 16 l 80 14 q 163 77 109 14 q 266 233 218 140 q 268 237 267 235 q 281 262 277 254 q 287 275 285 271 q 290 285 288 279 q 295 298 292 290 q 304 323 298 307 z "},"h":{"ha":587,"x_min":-101,"x_max":638,"o":"m 257 869 q 319 844 304 869 q 334 797 334 819 q 326 756 334 778 l 168 351 q 282 505 214 431 q 423 580 350 578 q 492 547 475 578 q 510 488 510 515 q 491 399 510 451 l 371 88 q 358 38 358 56 q 359 27 358 32 q 380 9 365 9 l 382 9 q 474 99 414 15 q 595 296 534 183 q 613 317 605 315 q 625 320 621 320 q 635 316 631 320 q 638 308 638 313 q 635 296 638 303 q 593 214 615 256 q 524 96 570 168 q 418 -33 477 24 q 296 -90 359 -90 q 227 -58 245 -89 q 210 1 210 -26 q 229 90 210 37 l 348 401 q 361 452 361 434 q 360 463 361 458 q 340 479 355 479 l 337 479 q 208 355 288 471 q 70 97 127 239 l 31 -3 q 24 -39 24 -23 q 24 -47 24 -43 q 36 -78 28 -66 q 52 -90 44 -89 l -3 -90 q -81 -58 -62 -90 q -101 1 -101 -26 q -91 53 -101 25 l 193 782 q 199 817 199 801 q 199 826 199 821 q 188 856 196 845 q 172 869 179 867 l 257 869 z "},"i":{"ha":283,"x_min":-94,"x_max":335,"o":"m 251 852 q 313 827 298 852 q 328 781 328 802 q 320 740 328 762 l 311 715 q 304 681 304 696 q 304 671 304 676 q 316 641 307 652 q 332 629 324 630 l 246 629 q 184 654 199 629 q 169 701 169 679 q 177 741 169 720 l 186 765 q 193 800 193 784 q 193 809 193 804 q 181 839 190 828 q 165 852 173 850 l 251 852 m 146 580 q 207 555 192 580 q 222 508 222 530 q 214 467 222 490 l 68 88 q 55 37 55 55 q 56 27 55 31 q 78 9 62 9 l 79 9 q 171 99 111 15 q 292 296 231 183 q 310 317 302 315 q 322 320 318 320 q 332 316 328 320 q 335 308 335 313 q 332 296 335 303 q 290 214 312 256 q 221 96 267 168 q 116 -33 175 24 q -7 -90 56 -90 q -76 -58 -58 -89 q -94 1 -94 -26 q -75 90 -94 38 l 81 493 q 88 528 88 513 q 87 537 88 533 q 76 567 84 556 q 60 580 68 578 l 146 580 z "},"j":{"ha":290,"x_min":-384,"x_max":364,"o":"m 279 852 q 341 827 326 852 q 356 781 356 802 q 348 740 356 762 l 338 715 q 332 682 332 697 q 332 671 332 676 q 343 641 335 652 q 359 629 352 630 l 273 629 q 212 654 227 629 q 197 701 197 679 q 205 741 197 720 l 214 765 q 221 800 221 784 q 220 809 221 804 q 209 839 218 828 q 193 852 201 850 l 279 852 m 71 32 q 212 156 138 71 q 332 320 286 241 q 349 327 342 327 q 358 324 354 327 q 364 312 364 320 q 360 296 364 305 q 218 106 304 197 q 48 -26 132 16 q -75 -259 10 -129 q -265 -409 -160 -389 l -277 -410 q -359 -383 -330 -410 q -384 -324 -384 -360 q -382 -302 -384 -313 q -274 -142 -357 -208 q -102 -45 -191 -75 l 109 493 q 115 527 115 511 q 115 537 115 532 q 103 567 112 556 q 87 580 95 578 l 174 580 q 235 555 220 580 q 250 508 250 530 q 242 467 250 490 l 71 32 m -328 -300 q -332 -326 -332 -314 q -313 -362 -332 -353 q -302 -365 -308 -365 q -124 -98 -243 -365 q -248 -177 -190 -123 q -328 -300 -307 -231 z "},"k":{"ha":554,"x_min":-99,"x_max":600,"o":"m 248 185 l 294 70 q 338 28 312 28 q 366 37 351 28 q 458 137 412 68 q 537 263 505 207 q 557 296 549 283 q 575 317 567 315 q 587 320 583 320 q 597 316 593 320 q 600 308 600 313 q 597 296 600 303 q 555 214 577 256 q 321 -90 409 -75 q 286 -93 302 -93 q 191 -45 224 -93 q 123 98 148 17 q 97 163 110 134 l 33 -3 q 26 -39 26 -23 q 26 -47 26 -43 q 38 -77 30 -66 q 54 -90 47 -88 l -1 -90 q -79 -58 -60 -90 q -99 1 -99 -26 q -89 54 -99 25 l 193 782 q 199 817 199 801 q 199 826 199 821 q 188 856 196 845 q 172 869 179 867 l 257 869 q 319 844 304 869 q 334 797 334 819 q 326 756 334 778 l 210 458 q 228 477 211 458 q 274 519 245 495 q 339 561 303 543 q 413 580 375 580 q 517 542 495 580 q 538 472 538 505 q 528 414 538 445 q 435 282 506 346 q 248 185 364 219 m 163 336 q 223 301 186 301 q 246 304 234 301 q 349 361 300 318 q 408 432 397 405 q 418 469 418 460 q 385 505 418 495 q 377 506 381 506 q 281 460 340 506 q 163 336 216 409 z "},"l":{"ha":283,"x_min":-92,"x_max":336,"o":"m 258 869 q 320 844 304 869 q 336 797 336 819 q 328 756 336 778 l 70 88 q 56 37 56 55 q 58 27 56 31 q 79 9 64 9 l 81 9 q 173 99 113 15 q 294 296 233 183 q 312 317 304 315 q 323 320 319 320 q 333 316 329 320 q 336 308 336 313 q 333 296 336 303 q 292 214 314 256 q 222 96 269 168 q 117 -33 176 24 q -5 -90 58 -90 q -75 -58 -57 -89 q -92 1 -92 -26 q -73 90 -92 38 l 193 782 q 201 817 201 802 q 200 826 201 822 q 189 856 197 845 q 172 869 180 867 l 258 869 z "},"m":{"ha":885,"x_min":-102,"x_max":937,"o":"m 143 580 q 205 555 189 580 q 220 508 220 530 q 212 467 220 489 l 171 361 q 283 509 218 440 q 420 580 349 578 q 488 547 471 578 q 506 488 506 516 q 488 399 506 452 l 472 360 q 585 509 519 439 q 722 580 650 578 q 791 547 773 578 q 808 488 808 515 q 789 399 808 451 l 669 88 q 656 38 656 56 q 658 27 656 32 q 679 9 663 9 l 680 9 q 772 99 713 15 q 893 296 832 183 q 911 317 903 315 q 924 320 920 320 q 933 316 929 320 q 937 308 937 313 q 933 296 937 303 q 892 214 913 256 q 822 96 868 168 q 716 -33 776 24 q 595 -90 657 -90 q 526 -58 543 -89 q 508 1 508 -26 q 527 90 508 37 l 646 401 q 660 452 660 434 q 659 463 660 458 q 638 479 654 479 l 635 479 q 524 382 593 475 q 392 152 454 290 l 332 -3 q 325 -37 325 -22 q 326 -47 325 -43 q 337 -78 328 -66 q 353 -90 345 -89 l 298 -90 q 219 -58 239 -90 q 200 1 200 -26 q 210 53 200 25 l 345 401 q 357 452 357 433 q 356 463 357 458 q 336 479 351 479 l 334 479 q 219 373 290 472 q 92 155 149 275 l 30 -3 q 23 -37 23 -22 q 24 -47 23 -43 q 35 -78 26 -66 q 51 -90 43 -89 l -4 -90 q -82 -58 -63 -90 q -102 1 -102 -26 q -92 53 -102 25 l 79 493 q 85 528 85 512 q 85 537 85 532 q 74 567 82 556 q 58 580 65 578 l 143 580 z "},"n":{"ha":587,"x_min":-102,"x_max":637,"o":"m 143 580 q 205 555 190 580 q 220 508 220 530 q 212 467 220 489 l 167 351 q 281 505 214 431 q 422 580 349 578 q 491 547 473 578 q 509 489 509 516 q 490 399 509 452 l 370 88 q 357 37 357 55 q 358 27 357 31 q 380 9 364 9 l 381 9 q 473 99 413 15 q 594 296 533 183 q 612 317 604 315 q 624 320 620 320 q 633 316 629 320 q 637 308 637 313 q 633 296 637 303 q 592 214 614 256 q 523 96 569 168 q 417 -33 477 24 q 295 -90 358 -90 q 226 -58 243 -89 q 208 1 208 -26 q 227 90 208 38 l 347 401 q 360 452 360 433 q 359 463 360 458 q 338 479 354 479 l 336 479 q 207 355 287 471 q 69 97 126 239 l 30 -3 q 23 -38 23 -22 q 24 -47 23 -43 q 35 -78 26 -66 q 51 -90 43 -89 l -3 -90 q -82 -58 -63 -90 q -102 1 -102 -26 q -92 53 -102 25 l 79 493 q 85 528 85 512 q 85 537 85 532 q 74 567 82 556 q 58 580 65 578 l 143 580 z "},"o":{"ha":519,"x_min":-33,"x_max":572,"o":"m 132 -90 q -16 16 20 -90 q -33 120 -33 64 q -9 267 -33 188 q 55 418 14 347 q 158 534 97 489 q 300 580 218 580 q 420 513 385 580 q 450 378 450 456 q 446 306 450 362 q 401 150 442 249 q 532 306 488 212 q 535 312 532 308 q 545 318 538 315 q 556 320 549 320 l 559 320 q 572 311 570 318 l 572 308 q 569 294 572 301 q 486 167 536 226 q 366 79 436 109 q 263 -42 323 5 q 132 -90 203 -90 m 391 288 q 398 359 398 327 q 383 438 398 399 q 323 477 368 477 q 220 415 273 477 q 138 245 168 353 q 118 99 118 162 q 124 31 118 78 q 180 -16 130 -16 q 316 94 241 -16 q 296 153 296 113 q 299 189 296 169 q 331 261 309 232 q 378 291 354 291 q 391 288 385 291 z "},"p":{"ha":513,"x_min":-214,"x_max":578,"o":"m 155 16 q 218 93 183 23 q 197 153 197 111 q 200 189 197 169 q 232 261 210 232 q 279 291 254 291 q 300 283 290 291 q 330 381 319 336 q 340 441 340 418 q 339 452 340 447 q 313 481 334 481 l 309 481 q 252 451 279 477 q 204 393 224 425 q 176 341 184 361 l 163 309 l 155 290 q 121 149 128 220 q 118 104 118 125 q 123 52 118 74 q 153 16 133 16 l 155 16 m 62 48 l -82 -322 q -89 -356 -89 -340 q -87 -373 -89 -361 q -77 -396 -85 -385 q -61 -409 -68 -408 l -116 -409 q -200 -368 -175 -409 q -214 -317 -214 -345 q -203 -265 -214 -294 l 91 493 q 98 528 98 513 q 96 545 98 533 q 86 567 94 556 q 70 580 77 578 l 156 580 q 219 552 198 580 q 233 509 233 534 q 229 483 233 497 l 231 483 q 393 579 318 579 q 413 578 404 579 q 492 486 492 559 q 491 466 492 477 q 454 308 485 397 q 379 135 422 218 q 473 207 433 159 q 538 306 513 254 q 542 312 539 308 q 551 318 545 315 q 563 320 555 320 l 566 320 q 578 311 577 318 l 578 307 q 575 294 578 300 q 482 156 540 218 q 341 68 425 93 q 321 36 331 52 q 149 -90 249 -77 q 140 -90 144 -90 q 62 38 62 -90 l 62 48 z "},"q":{"ha":513,"x_min":-79,"x_max":506,"o":"m 429 580 q 490 555 475 580 q 506 508 506 530 q 498 467 506 489 l 192 -322 q 185 -357 185 -341 q 186 -366 185 -361 q 197 -396 189 -385 q 213 -409 205 -408 l 159 -409 q 80 -377 99 -409 q 60 -317 60 -345 q 71 -265 60 -294 l 193 49 q 5 -92 88 -92 q -3 -91 1 -92 q -64 -57 -50 -87 q -79 9 -79 -27 q -77 35 -79 22 q -21 252 -67 127 q 85 465 25 377 q 249 576 143 555 q 269 578 260 578 q 358 479 347 578 l 363 493 q 371 528 371 513 q 370 537 371 533 q 359 567 368 556 q 342 580 351 578 l 429 580 m 298 324 q 311 372 305 344 q 317 419 317 400 q 315 446 317 433 q 278 479 309 475 l 275 479 q 225 450 253 479 q 135 283 179 394 q 73 104 92 172 q 61 53 62 66 q 60 39 60 40 q 73 15 60 17 l 74 15 q 157 77 103 15 q 260 233 212 140 q 262 237 261 235 q 275 263 271 255 q 280 276 279 271 q 284 286 282 280 q 289 299 286 290 q 298 324 292 308 z "},"r":{"ha":382,"x_min":-4,"x_max":428,"o":"m 100 532 q 78 592 78 557 q 88 645 78 616 l 104 690 q 111 724 111 709 q 110 741 111 729 q 99 764 108 753 q 83 777 91 775 l 169 777 q 235 744 216 777 q 245 705 245 727 q 238 664 245 686 l 207 581 l 238 581 q 304 548 285 581 q 315 509 315 531 q 307 468 315 490 l 161 90 q 148 39 148 57 q 149 28 148 33 q 170 11 154 11 l 172 11 q 264 100 204 16 q 385 297 323 184 q 407 319 395 316 q 415 321 412 321 q 425 317 421 321 q 428 309 428 314 q 425 297 428 304 q 383 214 405 256 q 313 96 359 168 q 208 -32 267 24 q 86 -90 149 -89 q 9 -44 35 -88 q -1 1 -1 -26 q 18 91 -1 38 l 176 501 q 140 507 156 501 q 138 503 139 505 q 31 273 83 367 q 14 259 24 260 l 11 259 q -2 267 2 259 q -4 275 -4 271 q 1 295 -4 283 q 53 406 31 353 q 100 532 75 458 z "},"s":{"ha":443,"x_min":-26,"x_max":489,"o":"m 92 -90 q -26 -1 -26 -90 q -24 17 -26 7 q 71 167 -3 103 q 91 176 83 176 q 95 175 93 176 q 103 166 103 172 q 104 161 104 161 q 96 142 104 151 q 43 65 57 104 q 29 1 29 25 q 34 -27 29 -14 q 64 -49 41 -49 q 92 -43 76 -49 q 172 59 151 -15 q 193 185 193 134 q 182 274 193 230 q 144 376 165 330 q 121 439 128 414 q 86 384 104 417 q 54 323 68 351 q 39 295 45 305 q 32 283 33 284 q 15 273 24 273 l 14 273 q 1 280 5 273 q -2 291 -2 286 q 0 302 -2 296 q 31 366 16 334 q 109 503 64 444 q 234 576 153 563 q 307 580 269 580 q 276 554 294 577 q 258 496 258 532 l 258 493 q 292 372 262 440 q 309 330 300 351 q 330 205 330 267 q 305 74 330 138 q 446 296 372 159 q 465 317 456 315 q 476 320 473 320 q 486 316 482 320 q 489 309 489 313 q 486 296 489 303 q 330 46 430 169 q 92 -90 231 -77 z "},"t":{"ha":285,"x_min":-90,"x_max":389,"o":"m 242 821 q 304 796 289 821 q 319 749 319 771 q 311 709 319 730 l 310 706 l 332 706 q 370 716 355 707 q 389 732 385 726 l 373 670 q 349 641 367 648 q 306 635 330 635 l 283 635 l 72 88 q 58 37 58 55 q 60 27 58 31 q 81 9 65 9 l 83 9 q 174 99 115 15 q 295 296 234 183 q 314 317 306 315 q 326 320 321 320 q 335 316 331 320 q 338 308 338 313 q 335 296 338 303 q 294 214 315 256 q 224 96 271 168 q 119 -33 178 24 q -3 -90 60 -90 q -73 -58 -55 -89 q -90 1 -90 -26 q -71 90 -90 38 l 139 635 l 113 636 q 81 629 92 635 q 68 616 70 623 l 82 665 q 106 700 89 693 q 148 707 123 707 q 161 707 154 707 l 167 707 l 178 734 q 184 769 184 753 q 184 779 184 774 q 173 809 181 798 q 157 821 164 820 l 242 821 z "},"u":{"ha":573,"x_min":-74,"x_max":623,"o":"m 460 357 l 356 88 q 342 37 342 55 q 344 27 342 31 q 366 9 349 9 l 367 9 q 459 99 399 15 q 580 296 519 183 q 598 317 590 315 q 610 320 606 320 q 619 316 615 320 q 623 308 623 313 q 619 296 623 303 q 578 214 600 256 q 509 96 555 168 q 403 -33 463 24 q 281 -90 344 -90 q 214 -61 235 -89 q 194 1 194 -33 q 201 55 194 25 q 10 -92 94 -92 q 1 -91 5 -92 q -60 -57 -45 -87 q -74 9 -74 -27 q -73 35 -74 22 q 9 318 -54 155 l 8 318 l 24 357 l 24 357 l 76 493 q 83 528 83 513 q 83 537 83 533 q 71 567 79 556 q 55 580 62 578 l 141 580 q 202 555 187 580 q 218 508 218 530 q 210 467 218 490 l 167 357 q 132 258 151 310 q 77 104 95 163 q 66 53 66 66 q 65 39 65 40 q 78 15 65 17 l 79 15 q 161 76 108 15 q 264 229 216 137 q 278 258 273 248 q 284 273 282 267 q 289 284 287 278 q 296 302 291 290 l 369 493 q 376 528 376 513 q 376 537 376 533 q 364 567 372 556 q 348 580 356 578 l 434 580 q 495 555 480 580 q 511 508 511 530 q 503 467 511 490 l 460 357 z "},"v":{"ha":401,"x_min":-74,"x_max":450,"o":"m 2 -91 q -74 3 -74 -79 q -72 35 -74 18 q -11 260 -60 130 q 73 486 30 373 q 77 493 75 489 q 83 528 83 512 q 83 537 83 532 q 72 567 80 556 q 56 580 63 578 l 141 580 q 203 555 188 580 q 218 508 218 530 q 210 467 218 489 l 168 357 q 132 258 151 310 q 78 104 96 163 q 66 53 66 66 q 66 37 66 39 q 79 15 66 17 l 81 15 q 146 55 109 15 q 218 154 183 96 q 250 325 224 228 q 311 496 275 421 q 387 580 347 571 l 391 580 q 419 544 419 580 l 419 539 q 396 434 417 496 q 353 320 376 372 q 324 252 338 284 q 266 142 300 201 q 410 306 363 203 q 414 312 411 308 q 422 318 417 315 q 435 320 427 320 l 438 320 q 450 314 449 318 q 450 309 450 309 q 447 294 450 301 q 356 158 412 220 q 219 70 300 96 q 115 -45 170 0 q 7 -91 60 -91 l 2 -91 z "},"w":{"ha":686,"x_min":-75,"x_max":739,"o":"m 290 -91 q 214 3 214 -79 q 216 35 214 18 q 222 75 218 54 q 117 -44 173 3 q 6 -91 61 -91 l 1 -91 q -75 3 -75 -79 q -73 35 -75 18 q -29 210 -64 110 q 66 469 16 340 q 76 493 71 481 q 83 527 83 511 q 82 537 83 532 q 71 567 79 556 q 55 580 62 578 l 141 580 q 202 555 187 580 q 218 508 218 530 q 210 467 218 489 q 181 395 196 432 q 77 104 120 247 q 66 53 66 66 q 65 39 65 40 q 78 15 65 17 l 79 15 q 157 68 114 15 q 237 186 201 121 q 286 284 273 250 q 340 429 312 357 q 365 493 353 461 q 372 528 372 512 q 371 537 372 532 q 360 567 368 556 q 344 580 351 578 l 429 580 q 491 555 476 580 q 507 508 507 530 q 498 467 507 489 l 456 357 q 420 258 439 310 q 366 104 384 163 q 355 53 355 66 q 354 37 354 39 q 367 15 354 17 l 369 15 q 434 55 397 15 q 507 154 471 96 q 538 325 513 228 q 600 496 563 421 q 675 580 636 571 l 680 580 q 707 544 707 580 l 707 539 q 685 434 705 496 q 642 320 664 372 l 642 320 q 612 252 627 284 q 554 142 589 201 q 699 306 651 203 q 702 312 699 308 q 711 318 705 315 q 723 320 716 320 l 726 320 q 738 314 737 318 q 739 308 739 309 q 736 294 739 301 q 644 158 701 220 q 507 70 588 96 q 404 -45 459 0 q 295 -91 349 -91 l 290 -91 z "},"x":{"ha":585,"x_min":-63,"x_max":632,"o":"m 315 390 l 317 371 l 439 531 q 492 575 466 568 q 541 581 513 581 q 556 581 548 581 q 583 580 568 580 q 491 493 552 572 l 325 279 l 338 115 q 350 42 341 73 q 376 11 358 12 q 468 100 408 16 q 589 297 528 184 q 610 319 599 316 q 619 321 615 321 q 629 317 625 321 q 632 309 632 314 q 629 297 632 304 q 587 214 609 256 q 517 97 564 168 q 412 -32 471 26 q 290 -90 352 -90 q 217 -29 237 -90 q 193 104 197 31 l 192 108 l 85 -30 q 27 -83 52 -74 q -19 -91 9 -91 q -36 -90 -27 -91 l -63 -90 q -23 -64 -50 -87 q 32 -3 3 -41 l 184 197 l 169 385 l 169 390 q 166 420 168 402 q 157 451 163 439 q 144 458 152 458 q 134 456 140 458 q 91 399 115 443 q 49 317 66 355 q 38 294 42 303 q 32 285 33 285 q 15 274 24 274 q 9 274 14 274 q 0 283 5 275 q -2 292 -2 288 q 0 303 -2 298 q 13 331 6 317 q 70 448 39 391 q 136 542 100 505 q 218 580 172 580 q 291 521 271 580 q 315 390 311 462 z "},"y":{"ha":583,"x_min":-116,"x_max":632,"o":"m 339 32 q 479 156 406 71 q 600 320 553 241 q 617 327 609 327 q 626 324 622 327 q 632 312 632 320 q 628 296 632 305 q 486 106 572 197 q 316 -26 400 16 q 237 -191 285 -113 q 121 -344 177 -286 q 3 -409 66 -402 l -9 -410 q -91 -383 -62 -410 q -116 -324 -116 -360 q -114 -302 -116 -313 q -6 -142 -90 -208 q 165 -45 77 -75 l 202 50 q 15 -92 97 -92 q 6 -91 11 -92 q -71 -1 -71 -79 q -68 35 -71 16 q -12 244 -52 131 q 66 457 27 358 q 81 493 74 475 q 87 528 87 512 q 87 537 87 532 q 76 567 84 556 q 60 580 67 578 l 145 580 q 207 555 192 580 q 222 508 222 530 q 214 467 222 489 q 185 393 200 431 q 82 104 125 247 q 70 53 71 66 q 70 37 70 39 q 82 15 70 17 l 83 15 q 166 76 112 15 q 268 229 220 137 q 282 258 277 248 q 289 273 287 267 q 294 284 291 278 q 300 302 296 290 l 374 493 q 380 528 380 512 q 380 537 380 532 q 369 567 377 556 q 353 580 360 578 l 438 580 q 500 555 485 580 q 515 508 515 530 q 507 467 515 489 l 339 32 m -60 -300 q -64 -326 -64 -314 q -45 -362 -64 -353 q -34 -365 -40 -365 q 144 -98 25 -365 q 20 -177 78 -123 q -60 -300 -39 -231 z "},"z":{"ha":422,"x_min":-261,"x_max":487,"o":"m 115 532 q 94 592 94 557 q 104 645 94 616 l 120 690 q 127 724 127 708 q 125 741 127 729 q 115 764 123 753 q 99 777 106 775 l 185 777 q 251 744 231 777 q 262 705 262 727 q 254 664 262 686 l 223 581 l 330 581 q 399 547 376 581 q 410 511 410 530 q 398 468 410 490 q 271 308 348 389 q 157 196 193 227 q 215 140 210 178 q 216 129 216 134 q 193 32 216 92 q 334 156 260 71 q 455 320 408 241 q 472 327 464 327 q 481 324 477 327 q 487 312 487 320 q 483 296 487 305 q 341 106 427 197 q 170 -26 255 16 q 47 -259 133 -129 q -143 -409 -38 -389 l -155 -410 q -236 -383 -208 -410 q -261 -324 -261 -360 q -259 -302 -261 -313 q -152 -142 -235 -208 q 20 -45 -68 -75 l 70 80 q 81 135 79 106 l 81 143 q 77 186 81 167 q 65 208 73 206 q 132 282 88 229 q 215 398 175 336 q 267 501 255 459 q 235 502 260 501 q 186 504 210 503 q 155 507 162 505 l 154 504 q 47 273 98 367 q 29 259 39 260 l 26 259 q 14 267 18 259 q 12 275 12 271 q 17 295 12 283 q 68 406 47 353 q 115 532 90 458 m -206 -300 q -209 -325 -209 -313 q -191 -362 -209 -353 q -179 -365 -185 -365 q -2 -98 -120 -365 q -125 -177 -67 -123 q -206 -300 -184 -231 z "},"{":{"ha":566,"x_min":86,"x_max":808,"o":"m 245 -185 q 119 -140 152 -185 q 86 -59 86 -94 q 92 -28 86 -43 l 256 398 q 263 433 263 417 q 262 442 263 437 q 251 472 260 461 q 235 485 243 484 q 278 511 250 488 q 323 572 307 534 l 492 1011 q 574 1113 517 1072 q 690 1154 631 1154 l 808 1154 q 691 1100 730 1139 q 639 1021 652 1061 l 476 597 q 412 517 457 549 q 321 485 367 485 l 290 485 q 369 453 349 485 q 388 393 388 421 q 378 341 388 370 l 225 -53 q 217 -96 217 -77 q 223 -126 217 -113 q 257 -169 236 -155 q 288 -185 279 -184 l 245 -185 z "},"|":{"ha":574,"x_min":31,"x_max":550,"o":"m 473 1084 q 535 1060 519 1084 q 550 1014 550 1035 q 542 972 550 995 l 163 -7 q 156 -42 156 -26 q 157 -52 156 -47 q 168 -82 159 -71 q 184 -95 176 -93 l 129 -95 q 51 -63 70 -95 q 31 -3 31 -31 q 41 49 31 20 l 408 998 q 416 1033 416 1017 q 415 1042 416 1038 q 404 1072 412 1061 q 387 1084 395 1083 l 473 1084 z "},"}":{"ha":705,"x_min":34,"x_max":755,"o":"m 597 1066 q 722 1021 689 1066 q 755 940 755 975 q 750 908 755 924 l 585 483 q 578 448 578 464 q 579 439 578 444 q 590 409 582 420 q 606 396 599 397 q 564 370 592 393 q 518 309 535 347 l 350 -130 q 268 -233 325 -191 q 151 -274 210 -274 l 34 -274 q 150 -219 111 -258 q 202 -140 189 -180 l 365 283 q 429 363 385 331 q 521 396 474 396 l 552 396 q 473 428 492 396 q 454 488 454 460 q 464 540 454 511 l 616 934 q 625 978 625 958 q 618 1007 625 994 q 584 1050 605 1036 q 554 1066 563 1065 l 597 1066 z "},"~":{"ha":853,"x_min":64,"x_max":764,"o":"m 566 520 q 647 508 603 508 q 675 509 661 508 q 764 551 736 515 q 687 432 741 478 q 571 386 633 386 q 488 399 533 386 l 261 475 q 180 487 224 487 q 153 486 167 487 q 64 444 92 481 q 140 563 86 517 q 258 610 195 610 q 340 597 295 610 l 566 520 z "},"":{"ha":456,"x_min":0,"x_max":0,"o":""},"":{"ha":772,"x_min":0,"x_max":0,"o":""},"":{"ha":688,"x_min":0,"x_max":0,"o":""},"":{"ha":688,"x_min":0,"x_max":0,"o":""},"":{"ha":856,"x_min":0,"x_max":0,"o":""},"":{"ha":490,"x_min":42,"x_max":557,"o":"m 231 429 q 292 404 277 429 q 307 357 307 378 q 299 316 307 338 l 174 1 q 167 -33 167 -18 q 168 -43 167 -38 q 179 -73 170 -62 q 195 -85 187 -84 l 140 -85 q 61 -54 81 -85 q 42 5 42 -22 q 52 58 42 30 l 165 342 q 173 377 173 361 q 172 386 173 382 q 161 416 169 405 q 144 429 153 427 l 231 429 m 479 1071 q 542 1046 526 1071 q 557 999 557 1021 q 549 958 557 980 l 404 597 q 397 562 397 578 q 398 553 397 557 q 409 523 401 534 q 425 510 418 511 l 371 510 q 292 542 311 510 q 273 602 273 574 q 283 654 273 625 l 415 984 q 422 1019 422 1003 q 421 1028 422 1023 q 410 1058 418 1047 q 394 1071 401 1069 l 479 1071 z "},"":{"ha":688,"x_min":0,"x_max":0,"o":""},"":{"ha":694,"x_min":0,"x_max":0,"o":""},"":{"ha":1362,"x_min":68,"x_max":1267,"o":"m 670 1097 q 898 1051 788 1097 q 1093 920 1008 1005 q 1221 727 1175 838 q 1267 496 1267 615 q 1221 267 1267 376 q 1089 71 1175 157 q 895 -58 1004 -14 q 665 -102 785 -102 q 438 -57 545 -102 q 244 73 331 -12 q 113 267 158 158 q 68 496 68 375 q 113 726 68 616 q 243 920 158 836 q 437 1051 326 1005 q 670 1097 548 1097 m 277 886 q 158 707 199 808 q 117 496 117 607 q 158 286 117 385 q 279 107 199 186 q 457 -12 358 29 q 665 -54 555 -54 q 876 -13 777 -54 q 1055 106 976 28 q 1176 286 1134 185 q 1219 496 1219 387 q 1176 708 1219 606 q 1058 886 1134 810 q 879 1006 980 964 q 669 1048 779 1048 q 456 1006 557 1048 q 277 886 354 964 m 690 94 q 476 149 575 94 q 324 299 376 204 q 272 497 272 395 q 325 695 272 600 q 478 846 378 791 q 685 900 577 900 q 746 895 715 900 q 808 878 776 889 q 815 877 812 877 q 836 901 830 877 l 870 901 l 929 741 l 893 741 q 787 842 850 817 q 667 863 728 863 l 654 863 q 519 805 585 856 q 420 661 454 753 q 393 511 393 587 q 395 470 393 490 q 452 288 404 372 q 573 164 499 204 q 708 130 632 132 q 866 176 809 130 q 923 278 923 221 l 966 278 l 966 197 q 888 126 966 159 q 690 94 809 94 z "},"":{"ha":439,"x_min":0,"x_max":0,"o":""},"":{"ha":640,"x_min":0,"x_max":0,"o":""},"":{"ha":688,"x_min":0,"x_max":0,"o":""},"":{"ha":1362,"x_min":68,"x_max":1267,"o":"m 597 806 l 597 502 l 600 496 q 646 429 618 450 q 691 412 669 412 l 696 412 q 746 443 722 415 q 784 522 771 471 q 795 606 795 563 q 793 628 795 616 q 771 730 791 683 q 725 791 751 777 q 673 806 699 806 l 597 806 m 787 380 l 854 286 q 976 172 935 172 l 1004 172 l 1004 131 l 722 131 l 722 172 l 759 172 q 783 189 783 172 q 727 282 783 213 l 666 366 q 597 399 632 366 l 597 270 q 627 172 597 172 l 670 172 l 670 131 l 413 131 l 413 172 l 448 172 q 478 270 478 172 l 478 708 q 448 806 478 806 l 413 806 l 413 863 l 703 863 q 804 829 755 863 q 880 736 853 795 q 906 612 906 677 q 880 490 906 549 q 787 380 854 431 m 670 1097 q 898 1051 788 1097 q 1093 920 1008 1005 q 1221 727 1175 838 q 1267 496 1267 615 q 1221 267 1267 376 q 1089 71 1175 157 q 895 -58 1004 -14 q 665 -102 785 -102 q 438 -57 545 -102 q 244 73 331 -12 q 113 267 158 158 q 68 496 68 375 q 113 726 68 616 q 243 920 158 836 q 437 1051 326 1005 q 670 1097 548 1097 m 277 886 q 158 707 199 808 q 117 496 117 607 q 158 286 117 385 q 279 107 199 186 q 457 -12 358 29 q 665 -54 555 -54 q 876 -13 777 -54 q 1055 106 976 28 q 1176 286 1134 185 q 1219 496 1219 387 q 1176 708 1219 606 q 1058 886 1134 810 q 879 1006 980 964 q 669 1048 779 1048 q 456 1006 557 1048 q 277 886 354 964 z "},"":{"ha":454,"x_min":0,"x_max":0,"o":""},"":{"ha":457,"x_min":0,"x_max":0,"o":""},"":{"ha":688,"x_min":0,"x_max":0,"o":""},"":{"ha":688,"x_min":0,"x_max":0,"o":""},"":{"ha":688,"x_min":0,"x_max":0,"o":""},"":{"ha":694,"x_min":0,"x_max":0,"o":""},"":{"ha":800,"x_min":0,"x_max":0,"o":""},"":{"ha":694,"x_min":0,"x_max":0,"o":""},"":{"ha":345,"x_min":0,"x_max":0,"o":""},"":{"ha":694,"x_min":0,"x_max":0,"o":""},"":{"ha":688,"x_min":0,"x_max":0,"o":""},"":{"ha":487,"x_min":0,"x_max":0,"o":""},"":{"ha":640,"x_min":0,"x_max":0,"o":""},"":{"ha":1158,"x_min":0,"x_max":0,"o":""},"":{"ha":1332,"x_min":0,"x_max":0,"o":""},"":{"ha":1158,"x_min":0,"x_max":0,"o":""},"":{"ha":507,"x_min":0,"x_max":0,"o":""},"":{"ha":1044,"x_min":0,"x_max":0,"o":""},"":{"ha":1044,"x_min":0,"x_max":0,"o":""},"":{"ha":1044,"x_min":0,"x_max":0,"o":""},"":{"ha":1044,"x_min":0,"x_max":0,"o":""},"":{"ha":1044,"x_min":0,"x_max":0,"o":""},"":{"ha":1044,"x_min":0,"x_max":0,"o":""},"":{"ha":1436,"x_min":0,"x_max":0,"o":""},"":{"ha":949,"x_min":0,"x_max":0,"o":""},"":{"ha":781,"x_min":0,"x_max":0,"o":""},"":{"ha":781,"x_min":0,"x_max":0,"o":""},"":{"ha":781,"x_min":0,"x_max":0,"o":""},"":{"ha":781,"x_min":0,"x_max":0,"o":""},"":{"ha":446,"x_min":0,"x_max":0,"o":""},"":{"ha":446,"x_min":0,"x_max":0,"o":""},"":{"ha":446,"x_min":0,"x_max":0,"o":""},"":{"ha":446,"x_min":0,"x_max":0,"o":""},"":{"ha":1029,"x_min":0,"x_max":0,"o":""},"":{"ha":1054,"x_min":0,"x_max":0,"o":""},"":{"ha":1095,"x_min":0,"x_max":0,"o":""},"":{"ha":1095,"x_min":0,"x_max":0,"o":""},"":{"ha":1095,"x_min":0,"x_max":0,"o":""},"":{"ha":1095,"x_min":0,"x_max":0,"o":""},"":{"ha":1095,"x_min":0,"x_max":0,"o":""},"":{"ha":688,"x_min":0,"x_max":0,"o":""},"":{"ha":1095,"x_min":0,"x_max":0,"o":""},"":{"ha":1018,"x_min":0,"x_max":0,"o":""},"":{"ha":1018,"x_min":0,"x_max":0,"o":""},"":{"ha":1018,"x_min":0,"x_max":0,"o":""},"":{"ha":1018,"x_min":0,"x_max":0,"o":""},"":{"ha":836,"x_min":0,"x_max":0,"o":""},"":{"ha":760,"x_min":0,"x_max":0,"o":""},"":{"ha":848,"x_min":0,"x_max":0,"o":""},"":{"ha":625,"x_min":0,"x_max":0,"o":""},"":{"ha":625,"x_min":0,"x_max":0,"o":""},"":{"ha":625,"x_min":0,"x_max":0,"o":""},"":{"ha":625,"x_min":0,"x_max":0,"o":""},"":{"ha":625,"x_min":0,"x_max":0,"o":""},"":{"ha":625,"x_min":0,"x_max":0,"o":""},"":{"ha":986,"x_min":0,"x_max":0,"o":""},"":{"ha":614,"x_min":0,"x_max":0,"o":""},"":{"ha":616,"x_min":0,"x_max":0,"o":""},"":{"ha":616,"x_min":0,"x_max":0,"o":""},"":{"ha":616,"x_min":0,"x_max":0,"o":""},"":{"ha":616,"x_min":0,"x_max":0,"o":""},"":{"ha":349,"x_min":0,"x_max":0,"o":""},"":{"ha":349,"x_min":0,"x_max":0,"o":""},"":{"ha":349,"x_min":0,"x_max":0,"o":""},"":{"ha":349,"x_min":0,"x_max":0,"o":""},"":{"ha":772,"x_min":0,"x_max":0,"o":""},"":{"ha":751,"x_min":0,"x_max":0,"o":""},"":{"ha":685,"x_min":0,"x_max":0,"o":""},"":{"ha":685,"x_min":0,"x_max":0,"o":""},"":{"ha":685,"x_min":0,"x_max":0,"o":""},"":{"ha":685,"x_min":0,"x_max":0,"o":""},"":{"ha":685,"x_min":0,"x_max":0,"o":""},"":{"ha":909,"x_min":56,"x_max":791,"o":"m 56 439 l 107 553 l 790 553 l 791 551 l 740 439 l 56 439 m 382 358 q 420 339 410 358 q 429 304 429 320 q 424 271 429 289 q 384 210 412 235 q 329 185 357 185 q 291 204 300 185 q 282 239 282 223 q 287 271 282 254 q 327 333 299 309 q 382 358 354 358 m 498 827 q 536 808 527 827 q 545 773 545 789 q 541 741 545 758 q 501 680 528 705 q 445 654 473 654 q 407 674 416 654 q 398 709 398 693 q 404 741 398 724 q 443 803 416 778 q 498 827 470 827 z "},"":{"ha":685,"x_min":0,"x_max":0,"o":""},"":{"ha":718,"x_min":0,"x_max":0,"o":""},"":{"ha":718,"x_min":0,"x_max":0,"o":""},"":{"ha":718,"x_min":0,"x_max":0,"o":""},"":{"ha":718,"x_min":0,"x_max":0,"o":""},"":{"ha":589,"x_min":0,"x_max":0,"o":""},"":{"ha":685,"x_min":0,"x_max":0,"o":""},"":{"ha":589,"x_min":0,"x_max":0,"o":""},"":{"ha":349,"x_min":0,"x_max":0,"o":""},"":{"ha":694,"x_min":0,"x_max":0,"o":""},"":{"ha":694,"x_min":0,"x_max":0,"o":""},"":{"ha":694,"x_min":0,"x_max":0,"o":""},"":{"ha":694,"x_min":0,"x_max":0,"o":""},"":{"ha":694,"x_min":0,"x_max":0,"o":""},"":{"ha":694,"x_min":0,"x_max":0,"o":""},"":{"ha":694,"x_min":0,"x_max":0,"o":""},"":{"ha":694,"x_min":0,"x_max":0,"o":""},"":{"ha":694,"x_min":0,"x_max":0,"o":""},"":{"ha":901,"x_min":38,"x_max":848,"o":"m 38 253 l 38 351 l 848 351 l 848 253 l 38 253 z "},"":{"ha":1667,"x_min":0,"x_max":1667,"o":"m 0 253 l 0 351 l 1667 351 l 1667 253 l 0 253 z "},"":{"ha":454,"x_min":73,"x_max":302,"o":"m 145 912 q 86 936 99 912 q 73 979 73 960 q 83 1025 73 1000 l 155 1149 q 215 1219 182 1208 q 276 1230 248 1230 q 291 1230 283 1230 l 302 1230 l 215 999 q 206 960 206 977 l 206 955 q 216 925 208 936 q 231 912 224 914 l 145 912 z "},"":{"ha":378,"x_min":76,"x_max":269,"o":"m 186 1230 q 251 1204 233 1230 q 269 1150 269 1177 q 264 1118 269 1135 l 212 993 q 160 923 192 935 q 100 912 128 912 q 87 913 93 912 l 76 913 l 129 1143 q 133 1171 133 1158 q 131 1187 133 1179 q 117 1218 127 1206 q 100 1230 108 1229 l 186 1230 z "},"":{"ha":389,"x_min":116,"x_max":264,"o":"m 216 102 q 254 83 245 102 q 264 48 264 64 q 258 16 264 33 q 254 3 256 9 q 123 -149 217 -88 q 165 -71 148 -111 l 163 -71 q 125 -52 135 -71 q 116 -16 116 -33 q 121 16 116 -1 q 161 78 134 53 q 216 102 189 102 z "},"":{"ha":741,"x_min":62,"x_max":460,"o":"m 349 912 q 284 939 303 912 q 266 992 266 965 q 271 1025 266 1007 l 323 1149 q 375 1219 343 1208 q 433 1230 406 1230 q 448 1230 441 1230 l 460 1230 l 407 999 q 402 970 402 983 q 404 955 402 962 q 418 925 408 936 q 435 912 427 914 l 349 912 m 136 912 q 76 936 89 912 q 62 979 62 960 q 73 1025 62 1000 l 144 1149 q 205 1219 172 1208 q 266 1230 238 1230 q 281 1230 273 1230 l 292 1230 l 205 999 q 196 959 196 977 l 196 955 q 206 925 198 936 q 221 912 214 914 l 136 912 z "},"":{"ha":624,"x_min":73,"x_max":469,"o":"m 182 1230 q 248 1204 229 1230 q 266 1150 266 1177 q 261 1118 266 1135 l 208 993 q 157 923 189 935 q 96 912 125 912 q 83 913 90 912 l 73 913 l 125 1143 q 130 1171 130 1158 q 127 1187 130 1179 q 114 1218 123 1206 q 97 1230 104 1229 l 182 1230 m 397 1230 q 456 1206 443 1230 q 469 1164 469 1182 q 459 1118 469 1143 l 387 993 q 326 923 359 935 q 264 912 292 912 q 251 913 257 912 l 240 913 l 327 1143 q 336 1183 336 1166 l 336 1187 q 326 1218 334 1206 q 311 1230 318 1229 l 397 1230 z "},"":{"ha":635,"x_min":113,"x_max":475,"o":"m 428 102 q 466 84 456 102 q 475 49 475 65 q 469 16 475 34 q 465 3 467 9 q 335 -149 429 -88 q 376 -71 359 -111 l 374 -71 q 337 -52 346 -71 q 328 -16 328 -33 q 333 16 328 -1 q 372 78 345 53 q 428 102 399 102 m 214 102 q 252 83 242 102 q 261 48 261 64 q 256 16 261 33 q 251 3 254 9 q 121 -149 214 -88 q 162 -71 145 -111 l 160 -71 q 123 -52 132 -71 q 113 -16 113 -33 q 119 16 113 -1 q 158 78 131 53 q 214 102 186 102 z "},"":{"ha":688,"x_min":0,"x_max":0,"o":""},"":{"ha":688,"x_min":0,"x_max":0,"o":""},"":{"ha":694,"x_min":0,"x_max":0,"o":""},"":{"ha":1389,"x_min":0,"x_max":0,"o":""},"":{"ha":428,"x_min":0,"x_max":0,"o":""},"":{"ha":428,"x_min":0,"x_max":0,"o":""},"":{"ha":277,"x_min":-193,"x_max":606,"o":"m 546 1084 q 599 1064 592 1084 q 606 1034 606 1043 q 585 972 606 1007 l -58 -19 q -76 -56 -74 -44 q -77 -73 -77 -68 q -73 -94 -77 -85 q -60 -106 -68 -104 l -115 -106 q -183 -79 -174 -106 q -193 -41 -193 -53 q -165 37 -193 -7 l 458 998 q 475 1035 474 1023 q 477 1051 477 1047 q 473 1072 477 1064 q 460 1084 467 1083 l 546 1084 z "},"":{"ha":688,"x_min":0,"x_max":0,"o":""},"":{"ha":688,"x_min":0,"x_max":0,"o":""},"":{"ha":1375,"x_min":0,"x_max":0,"o":""},"":{"ha":688,"x_min":0,"x_max":0,"o":""},"":{"ha":1540,"x_min":0,"x_max":0,"o":""},"":{"ha":1015,"x_min":0,"x_max":0,"o":""},"":{"ha":688,"x_min":0,"x_max":0,"o":""},"":{"ha":733,"x_min":0,"x_max":0,"o":""},"":{"ha":1027,"x_min":0,"x_max":0,"o":""},"":{"ha":818,"x_min":0,"x_max":0,"o":""},"":{"ha":825,"x_min":59,"x_max":743,"o":"m 59 439 l 59 553 l 742 553 l 743 551 l 743 439 l 59 439 z "},"":{"ha":688,"x_min":0,"x_max":0,"o":""},"":{"ha":688,"x_min":0,"x_max":0,"o":""},"":{"ha":451,"x_min":0,"x_max":0,"o":""},"":{"ha":958,"x_min":53,"x_max":835,"o":"m 637 639 q 718 627 674 627 q 746 628 732 627 q 835 669 806 633 q 758 550 812 597 q 641 504 704 504 q 559 517 604 504 l 332 593 q 252 606 296 606 q 224 604 238 606 q 135 563 163 599 q 211 682 157 635 q 328 728 266 728 q 410 715 366 728 l 637 639 m 555 386 q 634 374 591 374 q 664 375 649 374 q 753 416 724 380 q 676 297 730 343 q 559 251 621 251 q 477 264 522 251 l 250 340 q 169 352 214 352 q 141 351 155 352 q 53 309 81 346 q 129 428 75 382 q 246 475 184 475 q 328 462 283 475 l 555 386 z "},"":{"ha":825,"x_min":59,"x_max":743,"o":"m 743 786 l 234 494 l 743 205 l 743 69 l 59 460 l 59 528 l 743 922 l 743 786 m 59 -87 l 59 26 l 742 26 l 743 26 l 743 -87 l 59 -87 z "},"":{"ha":825,"x_min":59,"x_max":743,"o":"m 59 922 l 743 528 l 743 460 l 59 69 l 59 205 l 568 494 l 59 786 l 59 922 m 59 -86 l 59 28 l 742 28 l 743 26 l 743 -86 l 59 -86 z "},"":{"ha":728,"x_min":0,"x_max":0,"o":""},"":{"ha":733,"x_min":0,"x_max":0,"o":""}}}
